<?xml version="1.0" encoding="UTF-8" standalone="no"?>
<svg
   version="1.0"
   width="2009"
   height="322.98788"
   viewBox="0 0 2009 322.98788"
   preserveAspectRatio="xMidYMid"
   id="svg7"
   xmlns="http://www.w3.org/2000/svg"
   xmlns:svg="http://www.w3.org/2000/svg">
  <defs
     id="defs7" />
  <g
     fill="#000000"
     id="g7"
     transform="translate(-18,-952.01212)">
    <path
       d="m 476.5,1274 c -0.3,-0.5 -3.7,-1 -7.5,-1 -3.8,0 -7.2,-0.4 -7.5,-1 -0.3,-0.5 -2.4,-1 -4.5,-1 -2.1,0 -4.2,-0.4 -4.5,-1 -0.3,-0.5 -1.7,-1 -3,-1 -2.6,0 -10.9,-2.4 -13.7,-4 -1,-0.6 -2.5,-1 -3.3,-1 -0.8,0 -1.5,-0.4 -1.5,-1 0,-0.5 -0.4,-1 -1,-1 -1.5,0 -12.5,-5.3 -12.8,-6.2 -0.2,-0.4 -0.8,-0.8 -1.2,-0.8 -0.9,0 -5.2,-2.7 -11,-6.8 -3,-2.1 -14.6,-12.9 -17.4,-16.1 -1.2,-1.3 -3,-3.3 -4.1,-4.5 -3,-3.2 -7.5,-9.4 -7.5,-10.3 0,-0.5 -0.9,-1.5 -2,-2.3 -1.1,-0.8 -2,-2.2 -2,-3.1 0,-0.9 -0.7,-2.2 -1.5,-2.9 -0.8,-0.7 -1.5,-1.9 -1.5,-2.6 0,-0.8 -0.4,-1.4 -1,-1.4 -0.5,0 -1,-0.9 -1,-2 0,-1.1 -0.3,-2 -0.7,-2 -0.5,0 -1.6,-2.1 -2.6,-4.8 -2.6,-6.5 -3.8,-9.4 -4.8,-11.4 -0.5,-1 -0.9,-2.5 -0.9,-3.3 0,-0.8 -0.4,-1.5 -1,-1.5 -0.5,0 -1,-0.9 -1,-2.1 0,-2.6 -2.9,-14.8 -4.1,-17.1 -0.5,-1 -0.9,-3.6 -0.9,-5.7 0,-2.2 -0.4,-4.3 -1,-4.6 -0.5,-0.3 -1,-3.5 -1,-7.1 0,-3.6 -0.4,-6.4 -1,-6.4 -0.6,0 -1,-8.8 -1,-24.4 0,-15.3 0.4,-24.7 1,-25.1 0.6,-0.3 1,-3.4 1,-6.9 0,-3.4 0.4,-6.6 0.9,-7.2 0.5,-0.5 1.1,-2.7 1.4,-4.9 0.3,-2.2 1,-5.8 1.6,-8 0.6,-2.2 1.6,-6.6 2.3,-9.8 0.7,-3.1 1.6,-5.7 2,-5.7 0.4,0 0.8,-1.1 0.8,-2.5 0,-1.4 0.5,-2.5 1,-2.5 0.6,0 1,-0.9 1,-1.9 0,-1.1 0.5,-2.3 1,-2.6 0.6,-0.3 1,-1.3 1,-2.1 0,-2 3.3,-9.4 4.2,-9.4 0.5,0 0.8,-0.9 0.8,-2 0,-1.1 0.5,-2 1,-2 0.6,0 1,-0.6 1,-1.4 0,-0.7 0.7,-1.9 1.5,-2.6 0.8,-0.7 1.5,-2 1.5,-2.9 0,-0.9 0.9,-2.3 2,-3.1 1.1,-0.8 2,-2 2,-2.7 0,-0.7 0.3,-1.3 0.8,-1.3 0.4,0 1.8,-1.7 3.2,-3.7 2.6,-4 18.6,-20.3 19.8,-20.3 0.4,0 1.8,-1 3.2,-2.3 1.4,-1.3 4.1,-3.2 6,-4.3 1.9,-1 4.3,-2.7 5.4,-3.6 1.1,-1 2.6,-1.8 3.3,-1.8 0.7,0 1.3,-0.4 1.3,-0.9 0,-0.5 1.4,-1.3 3.2,-1.6 1.7,-0.4 4.7,-1.6 6.5,-2.6 1.9,-1.1 4,-1.9 4.8,-1.9 0.8,0 1.5,-0.4 1.5,-0.9 0,-0.5 1.2,-1.1 2.8,-1.4 11.3,-2.4 13.9,-3 15.4,-3.8 1,-0.5 3.6,-0.9 5.7,-0.9 2.2,0 4.3,-0.4 4.6,-1 0.3,-0.6 4.8,-1 10.1,-1 6.1,0 9.4,-0.4 9.4,-1.1 0,-0.7 1.9,-0.9 5.8,-0.4 3.1,0.3 10.1,0.8 15.5,1.1 5.3,0.3 9.7,1 9.7,1.5 0,0.5 1.8,0.9 4,0.9 2.2,0 4.8,0.4 5.8,0.9 0.9,0.6 3.8,1.3 6.4,1.6 2.6,0.3 5,1 5.3,1.6 0.4,0.5 1.5,0.9 2.6,0.9 1,0 2.7,0.4 3.7,0.9 1.6,0.9 7.8,3.6 16,7.2 1.7,0.8 3.2,1.7 3.2,2.1 0,0.5 0.7,0.8 1.5,0.8 0.8,0 1.5,0.3 1.5,0.8 0,0.4 1.8,1.6 4,2.6 2.2,1.1 4,2.3 4,2.8 0,0.4 0.5,0.8 1,0.8 0.6,0 2.2,1 3.5,2.2 1.3,1.3 5.1,4.6 8.3,7.3 3.3,2.8 6.6,6.1 7.5,7.5 0.8,1.4 2.8,3.9 4.4,5.5 1.5,1.7 3.4,4.3 4.2,5.8 0.8,1.5 1.8,2.7 2.2,2.7 0.4,0 1,1.1 1.3,2.5 0.4,1.4 1.1,2.5 1.6,2.5 0.6,0 1,0.7 1,1.5 0,0.8 0.5,1.5 1,1.5 0.6,0 1,0.9 1,2 0,1.1 0.5,2 1,2 0.6,0 1,0.5 1,1 0,0.6 1.6,4.3 3.5,8.3 1.9,3.9 3.5,8 3.5,8.9 0,1 0.4,1.8 0.9,1.8 0.5,0 1.2,2 1.5,4.5 0.4,2.4 1.1,4.7 1.7,5 0.5,0.4 0.9,1.9 0.9,3.5 0,1.6 0.5,3.2 1,3.5 0.6,0.3 1,2.4 1,4.5 0,2.1 0.5,4.2 1,4.5 0.6,0.3 1,2.3 1,4.4 0,2 0.6,4.3 1.3,5 1.8,1.8 1.8,70.2 0,70.9 -0.8,0.2 -1.3,2.1 -1.3,4.8 0,2.4 -0.4,4.4 -1,4.4 -0.5,0 -1,2 -1,4.5 0,2.5 -0.4,4.5 -0.9,4.5 -0.5,0 -1.1,1.2 -1.4,2.8 -1.6,8 -3,13.1 -4.7,16.7 -5.3,11.6 -7,15.6 -7,16.5 0,0.6 -0.4,1 -1,1 -0.5,0 -1,0.9 -1,2 0,1.1 -0.3,2 -0.8,2 -0.4,0 -1.2,0.9 -1.7,1.9 -0.6,1.1 -1.8,3.5 -2.9,5.5 -1,2 -2.2,3.6 -2.7,3.6 -0.5,0 -0.9,0.7 -0.9,1.5 0,0.8 -0.3,1.5 -0.7,1.5 -0.5,0 -1.9,1.7 -3.3,3.7 -3.1,4.6 -12.9,14.5 -19.5,19.8 -2.7,2.2 -5.2,4.2 -5.5,4.5 -0.3,0.3 -2.6,1.9 -5.2,3.5 -2.7,1.7 -4.8,3.3 -4.8,3.8 0,0.4 -0.9,0.7 -2,0.7 -1.1,0 -2,0.5 -2,1 0,0.6 -0.6,1 -1.2,1 -0.7,0 -3.5,1.1 -6.2,2.5 -2.7,1.4 -5.8,2.5 -6.8,2.5 -1,0 -1.8,0.5 -1.8,1 0,0.6 -1,1 -2.3,1 -1.3,0 -2.7,0.4 -3.3,0.9 -0.9,1 -8.6,2.8 -15.7,3.8 -2,0.3 -4,0.9 -4.3,1.4 -0.3,0.5 -3.6,0.9 -7.4,0.9 -3.8,0 -7.2,0.5 -7.5,1 -0.4,0.6 -5.5,1 -12,1 -6.5,0 -11.6,-0.4 -12,-1 z m 28,-63.1 c 0.5,-0.5 1.9,-0.9 3.2,-0.9 1.3,0 2.3,-0.4 2.3,-1 0,-0.5 0.8,-1 1.8,-1 4.7,0 17.6,-10.1 25.5,-20 2.5,-3 6.7,-11 6.7,-12.6 0,-0.8 0.3,-1.4 0.8,-1.4 0.4,0 1.3,-1.5 2,-3.2 0.7,-1.8 1.8,-4.1 2.3,-5.1 0.5,-0.9 1.2,-3.8 1.6,-6.2 0.3,-2.5 1,-4.8 1.4,-5.1 0.5,-0.3 0.9,-2 0.9,-3.9 0,-1.9 0.5,-3.7 1,-4 0.6,-0.3 1,-3 1,-6 0,-3 0.5,-5.7 1,-6 0.6,-0.4 1,-9 1,-22.5 0,-13.5 -0.4,-22.1 -1,-22.5 -0.5,-0.3 -1,-3.1 -1,-6.1 0,-3 -0.4,-5.4 -1,-5.4 -0.5,0 -1,-1.8 -1,-3.9 0,-2.2 -0.4,-4.2 -0.9,-4.5 -0.4,-0.3 -1.1,-2.5 -1.5,-4.8 -0.9,-5.4 -9.1,-22 -12.8,-26 -1.5,-1.7 -2.8,-3.3 -2.8,-3.6 0,-1.1 -6.4,-7.2 -7.5,-7.2 -0.5,0 -1.5,-0.8 -2.2,-1.9 -1.3,-2.1 -14.5,-9.1 -17.2,-9.1 -0.9,0 -2.1,-0.4 -2.6,-0.9 -2.8,-2.7 -31.1,-2.7 -34,0 -0.5,0.5 -1.9,0.9 -3.2,0.9 -1.3,0 -2.3,0.5 -2.3,1 0,0.6 -0.7,1 -1.5,1 -2,0 -11.5,5.1 -11.5,6.2 0,0.4 -0.5,0.8 -1.1,0.8 -1.1,0 -10.9,9.3 -10.9,10.4 0,0.4 -0.9,1.6 -2,2.8 -1.1,1.2 -2,2.8 -2,3.5 0,0.7 -0.4,1.3 -0.9,1.3 -0.5,0 -1.7,2 -2.8,4.5 -1,2.5 -2.1,4.5 -2.5,4.5 -0.5,0 -0.8,0.9 -0.8,2 0,1.1 -0.4,2.8 -0.9,3.8 -3.2,6.2 -6.1,18 -6.1,24.6 0,2.5 -0.4,4.8 -1,5.1 -0.6,0.4 -1,9.3 -1,23.5 0,14.2 0.4,23.1 1,23.5 0.6,0.3 1,2.5 1,4.8 0,4.4 2.5,17.5 4.3,21.7 0.5,1.4 1.3,3.4 1.7,4.5 2.7,6.7 6.5,14.5 7.2,14.5 0.4,0 0.8,0.9 0.8,2 0,1.1 0.4,2 0.8,2 0.4,0 1.6,1.3 2.5,3 2.3,3.8 13.8,15 15.5,15 0.6,0 1.2,0.4 1.2,0.8 0,0.5 1.9,1.6 4.3,2.6 2.3,0.9 5,2.1 5.9,2.7 1,0.5 2.7,0.9 3.8,0.9 1.1,0 2,0.4 2,1 0,1.9 29.4,1.8 31.5,-0.1 z"
       id="path1" />
    <path
       d="m 1553,1274 c 0,-0.6 -3,-1 -6.9,-1 -3.9,0 -7.3,-0.4 -7.6,-1 -0.3,-0.5 -2.4,-1 -4.5,-1 -2.1,0 -4.1,-0.4 -4.4,-0.9 -0.3,-0.4 -2.8,-1.1 -5.5,-1.5 -2.8,-0.4 -5.3,-1.1 -5.6,-1.6 -0.3,-0.6 -1.7,-1 -3,-1 -1.3,0 -2.7,-0.4 -3,-1 -0.3,-0.5 -1.7,-1 -3.1,-1 -1.3,0 -2.4,-0.3 -2.4,-0.8 0,-0.4 -1.5,-1.3 -3.2,-2.1 -7.6,-3.2 -10.4,-4.6 -12.1,-6.2 -1,-0.9 -3.4,-2.5 -5.4,-3.5 -5,-2.6 -20.6,-16.9 -28.3,-26 -3.4,-4 -8,-11.1 -8,-12.4 0,-0.5 -0.4,-1 -1,-1 -0.5,0 -1,-0.7 -1,-1.5 0,-0.8 -0.4,-1.5 -0.8,-1.5 -0.5,0 -1.7,-2 -2.8,-4.5 -1,-2.5 -2.2,-4.5 -2.6,-4.5 -0.4,0 -0.8,-0.9 -0.8,-2 0,-1.1 -0.4,-2 -1,-2 -0.5,0 -1,-0.8 -1,-1.9 0,-1 -0.7,-3.2 -1.5,-4.7 -0.8,-1.6 -1.5,-3.7 -1.5,-4.6 0,-0.9 -0.4,-2 -1,-2.3 -0.5,-0.3 -1,-1.7 -1,-3 0,-1.3 -0.4,-2.7 -1,-3 -0.5,-0.3 -1,-1.7 -1,-3.1 0,-1.3 -0.4,-2.4 -0.8,-2.4 -0.8,0 -2.8,-10.6 -3.9,-20 -0.3,-2.5 -0.9,-4.9 -1.4,-5.4 -0.5,-0.6 -0.9,-4.6 -0.9,-9.1 0,-4.5 -0.5,-8.6 -1.1,-9.2 -1.6,-1.6 0.2,-44.7 2.1,-48.8 0.5,-1.1 1.1,-3.8 1.4,-6 1.3,-10.5 3,-18.5 3.7,-18.5 0.5,0 0.9,-1.3 0.9,-2.9 0,-1.7 0.5,-3.3 1,-3.6 0.6,-0.3 1,-1.6 1,-2.9 0,-1.2 0.4,-2.6 0.9,-3.2 0.4,-0.5 1.7,-3.4 2.7,-6.4 1,-3 2.1,-5.7 2.5,-6 0.3,-0.3 1.9,-3.3 3.5,-6.7 1.6,-3.5 3.2,-6.3 3.6,-6.3 0.5,0 0.8,-0.5 0.8,-1 0,-0.6 0.8,-1.9 1.8,-3 0.9,-1 2.6,-3.5 3.7,-5.6 3,-5.6 24.9,-27.4 27.5,-27.4 0.6,0 1,-0.3 1,-0.8 0,-0.4 1.6,-1.6 3.5,-2.6 1.9,-1.1 3.5,-2.3 3.5,-2.8 0,-0.4 0.9,-0.8 2,-0.8 1.1,0 2,-0.4 2,-1 0,-0.5 0.7,-1 1.5,-1 0.8,0 1.5,-0.4 1.5,-1 0,-0.5 0.7,-1 1.5,-1 1.8,0 8.9,-3.2 9.3,-4.2 0.2,-0.5 1.5,-0.8 2.8,-0.8 1.3,0 2.4,-0.4 2.4,-1 0,-0.5 1.3,-1 2.8,-1 1.5,0 3.3,-0.5 3.8,-1 0.6,-0.6 3.4,-1.3 6.2,-1.7 2.9,-0.3 5.2,-0.9 5.2,-1.3 0,-1 7.3,-1.9 19.5,-2.6 5,-0.3 9.4,-1 10,-1.5 1.2,-1.2 10.2,-1.2 11,0.1 0.3,0.6 4.8,1 9.9,1 5,0 9.6,0.4 10.1,0.9 0.6,0.5 2.8,1.1 5,1.4 11.8,1.6 19.3,3.8 30.6,9.1 3.1,1.4 6.3,2.6 7.2,2.6 1,0 1.7,0.5 1.7,1 0,0.6 0.7,1 1.5,1 0.8,0 1.5,0.4 1.5,0.8 0,0.4 2.4,2.1 5.3,3.6 2.8,1.6 5.9,3.6 6.7,4.5 0.8,0.9 3.1,2.8 5,4.2 4.9,3.7 13.2,12 16.6,16.6 1.6,2.1 3.7,4.5 4.6,5.4 1,0.9 1.8,2.1 1.8,2.6 0,0.5 1.1,2.3 2.5,3.9 1.4,1.6 2.5,3.4 2.5,4.1 0,0.6 0.3,1.3 0.8,1.5 1.2,0.5 10,19.1 10.7,22.5 0.4,1.8 1.1,3.5 1.6,3.8 0.5,0.4 0.9,1.7 0.9,3 0,1.3 0.5,2.7 1,3 0.6,0.3 1,1.9 1,3.6 0,1.6 0.5,2.9 1,2.9 0.6,0 1,1.6 1,3.5 0,1.9 0.4,3.5 0.9,3.5 1.1,0 3.1,17.3 3.9,34.7 1.1,21.7 -1.2,58.8 -3.8,63.5 -0.6,1 -1,3.1 -1,4.8 0,1.6 -0.4,3 -1,3 -0.5,0 -1,1.4 -1,3 0,1.7 -0.4,3 -1,3 -0.5,0 -1,1.1 -1,2.4 0,1.3 -0.7,3.7 -1.5,5.2 -0.8,1.6 -1.5,3.6 -1.5,4.5 0,2.1 -9.7,20.9 -14.6,28.3 -2.1,3.2 -4.3,6.6 -4.9,7.4 -1.5,2.3 -24.1,25.2 -24.9,25.2 -0.9,0 -9,5.4 -9.4,6.3 -0.2,0.4 -1,0.7 -1.8,0.7 -0.8,0 -1.4,0.3 -1.4,0.8 0,0.4 -1.5,1.3 -3.2,2.1 -1.8,0.8 -6.4,2.9 -10.2,4.8 -3.8,1.8 -7.7,3.3 -8.6,3.3 -0.9,0 -2.1,0.5 -2.6,1 -0.6,0.6 -3.4,1.3 -6.2,1.7 -2.9,0.3 -5.2,1 -5.2,1.4 0,0.5 -2,0.9 -4.5,0.9 -2.5,0 -4.5,0.5 -4.5,1 0,0.6 -3,1 -6.9,1 -3.9,0 -7.3,0.5 -7.6,1 -0.4,0.6 -5.7,1 -12.6,1 -7.3,0 -11.9,-0.4 -11.9,-1 z m 28.5,-63.1 c 0.5,-0.5 1.6,-0.9 2.5,-0.9 2.5,0 13.1,-5.4 16.8,-8.6 7.3,-6.2 14.7,-14.6 16.4,-18.4 0.7,-1.6 1.6,-3 2,-3 0.5,0 0.8,-0.9 0.8,-2 0,-1.1 0.5,-2 1,-2 0.6,0 1,-0.9 1,-2 0,-1.1 0.4,-2 1,-2 0.5,0 1.3,-1.8 1.6,-4 0.4,-2.2 1.1,-4.3 1.5,-4.6 0.5,-0.3 0.9,-1.6 0.9,-3 0,-1.3 0.5,-2.4 1,-2.4 0.6,0 1,-1.5 1,-3.3 0,-1.8 0.4,-3.7 0.9,-4.2 1.1,-1.2 1.8,-6.6 3.2,-24.7 1.4,-16.9 -0.6,-48.5 -3.2,-51.3 -0.5,-0.5 -0.9,-2.4 -0.9,-4.2 0,-1.8 -0.4,-3.3 -1,-3.3 -0.5,0 -1,-1.3 -1,-2.9 0,-1.7 -0.4,-3.3 -1,-3.6 -0.5,-0.3 -1,-1.3 -1,-2.1 0,-2 -3.3,-9.4 -4.2,-9.4 -0.5,0 -0.8,-0.7 -0.8,-1.5 0,-0.8 -0.4,-1.5 -1,-1.5 -0.5,0 -1,-0.9 -1,-2 0,-1.1 -0.4,-2 -0.9,-2 -0.5,0 -1.2,-0.9 -1.6,-1.9 -1.7,-5.6 -20.7,-21.1 -25.7,-21.1 -1,0 -1.8,-0.4 -1.8,-1 0,-0.5 -1.3,-1 -3,-1 -1.6,0 -3,-0.4 -3,-0.9 0,-0.9 -10.7,-2.3 -17,-2.2 -7.1,0.1 -16,1.3 -16,2.2 0,0.5 -1.1,0.9 -2.5,0.9 -1.4,0 -3.4,0.5 -4.5,1 -1.1,0.6 -2.8,1.4 -3.7,1.8 -6.1,2.9 -9.6,5.5 -16,12.1 -4,4.1 -7.3,8 -7.3,8.8 0,0.7 -0.4,1.3 -0.9,1.3 -1.1,0 -8.1,13.8 -8.1,16.2 0,1 -0.4,1.8 -1,1.8 -0.5,0 -1,1.3 -1,2.9 0,1.7 -0.4,3.3 -1,3.6 -0.5,0.3 -1,1.9 -1,3.4 0,1.5 -0.4,3.1 -0.9,3.6 -1.7,1.9 -3.6,22.4 -3.6,38.5 0,16.1 1.9,36.6 3.6,38.5 0.5,0.5 0.9,2.4 0.9,4.2 0,1.8 0.5,3.3 1,3.3 0.6,0 1,1.3 1,2.9 0,1.7 0.5,3.3 1,3.6 0.6,0.3 1,1.4 1,2.4 0,2.3 7,16.1 8.1,16.1 0.5,0 0.9,0.8 0.9,1.8 0,1.8 10,12.8 15.5,17.1 3.8,2.9 14.3,8.1 16.5,8.1 0.9,0 2,0.4 2.6,0.9 1.9,2 29.8,1.9 31.9,0 z"
       id="path2" />
    <path
       d="M 704,1113.4 V 957.8 l 66.3,0.6 c 62.9,0.5 85.9,1.5 88.3,3.8 0.4,0.5 2.5,0.8 4.6,0.8 2.1,0 3.8,0.5 3.8,1 0,0.6 1.5,1 3.4,1 1.9,0 3.7,0.4 4,0.9 0.4,0.5 2.4,1.2 4.6,1.6 2.2,0.4 4,1.1 4,1.6 0,0.5 0.9,0.9 1.9,0.9 1.1,0 2.3,0.4 2.6,1 0.3,0.5 1.5,1 2.6,1 1,0 1.9,0.5 1.9,1 0,0.6 0.6,1 1.4,1 0.7,0 1.9,0.7 2.6,1.5 0.7,0.8 1.9,1.5 2.7,1.5 0.8,0 2,0.6 2.7,1.3 0.7,0.6 2.5,2.1 4,3.2 4.8,3.4 16.6,15.7 16.6,17.2 0,0.5 0.9,1.5 2,2.3 1.1,0.8 2,1.9 2,2.5 0,0.8 3.2,8 6.1,13.7 0.5,1 0.9,2.6 0.9,3.6 0,1 0.4,2.2 0.9,2.8 4.5,4.5 4.5,59 0,63.9 -0.5,0.5 -0.9,1.7 -0.9,2.7 0,1 -0.4,2.6 -0.9,3.6 -0.5,0.9 -2.6,5.3 -4.7,9.7 -2.1,4.4 -4.7,8.9 -5.6,9.9 -1,1.1 -1.8,2.4 -1.8,2.9 0,1.2 -17.9,18.7 -19.2,18.7 -0.6,0 -1.8,0.8 -2.7,1.8 -0.9,0.9 -4.2,3 -7.3,4.6 -4,1.9 -5.8,3.4 -5.8,4.7 0,2.3 5,11.9 6.2,11.9 0.4,0 0.8,0.7 0.8,1.5 0,0.9 1.1,3.3 2.5,5.5 1.4,2.2 2.5,4.4 2.5,5 0,0.5 0.5,1 1,1 0.6,0 1,0.7 1,1.5 0,0.8 0.5,1.5 1,1.5 0.6,0 1,0.7 1,1.5 0,0.9 1.1,3.3 2.5,5.5 1.4,2.2 2.5,4.4 2.5,5 0,0.5 0.5,1 1,1 0.6,0 1,0.7 1,1.5 0,0.8 0.5,1.5 1,1.5 0.6,0 1,0.6 1,1.4 0,1.8 3.2,7.6 4.3,7.6 0.4,0 0.7,0.9 0.7,1.9 0,1.1 0.3,2.1 0.8,2.3 0.4,0.2 2,2.9 3.6,6.1 1.5,3.1 3.2,5.7 3.7,5.7 0.5,0 0.9,0.9 0.9,2 0,1.1 0.3,2 0.8,2 0.4,0 1.6,2 2.7,4.5 1.1,2.5 2.3,4.5 2.6,4.5 0.3,0 1.1,1.6 1.9,3.5 0.8,1.9 1.6,3.5 1.9,3.5 0.3,0 1.5,2 2.6,4.5 1.1,2.5 2.2,4.5 2.5,4.5 0.4,0 1.2,1.6 2,3.5 0.8,1.9 1.6,3.5 1.9,3.5 0.3,0 1.5,2 2.6,4.5 1.1,2.5 2.2,4.5 2.5,4.5 0.4,0 1.2,1.6 2,3.5 0.8,1.9 1.7,3.5 2.2,3.5 0.4,0 0.8,0.5 0.8,1 0,0.7 -13.6,0.9 -40.2,0.8 l -40.3,-0.3 -0.3,-2.2 c -0.2,-1.3 -0.7,-2.3 -1.1,-2.3 -0.4,0 -1.3,-1.6 -2.1,-3.5 -0.8,-1.9 -1.7,-3.5 -2.1,-3.5 -0.4,0 -1,-1.2 -1.4,-2.7 -0.3,-1.5 -1.4,-3.8 -2.4,-5.2 -0.9,-1.4 -3,-5.3 -4.7,-8.6 -1.6,-3.3 -3.2,-6.1 -3.6,-6.3 -0.5,-0.2 -0.8,-1.2 -0.8,-2.2 0,-1 -0.3,-2 -0.7,-2.2 -0.5,-0.1 -3,-4.8 -5.8,-10.3 -2.7,-5.5 -5.2,-10.2 -5.5,-10.5 -0.3,-0.3 -1.4,-2.4 -2.5,-4.7 -1.1,-2.4 -2.3,-4.3 -2.7,-4.3 -0.5,0 -0.8,-0.9 -0.8,-2 0,-1.1 -0.3,-2 -0.8,-2 -0.4,0 -1.3,-1.5 -2.1,-3.2 -2.9,-6.9 -4.5,-10.3 -5.1,-10.8 -0.3,-0.3 -2,-3.4 -3.8,-7 -3.9,-7.9 -6.5,-12.4 -7.4,-12.8 -0.5,-0.2 -0.8,-1.2 -0.8,-2.3 0,-1.8 -0.9,-1.9 -19.5,-1.9 H 777 v 55.5 55.5 H 740.5 704 Z m 122,-12.2 c 6.7,-1 10.1,-1.8 13.5,-3.2 7.7,-3 10.5,-4.4 10.5,-5.2 0,-0.4 0.5,-0.8 1.2,-0.8 1.6,0 9.8,-8.1 9.8,-9.7 0,-0.7 0.3,-1.3 0.8,-1.3 0.9,0 3,-4.8 4.5,-9.8 0.6,-2.1 1.2,-8.4 1.4,-14.1 0.3,-8.1 0,-11.7 -1.4,-16.3 -1,-3.2 -2.1,-5.8 -2.5,-5.8 -0.5,0 -0.8,-0.6 -0.8,-1.4 0,-2.1 -10.1,-11.5 -13.2,-12.1 -1.5,-0.4 -3,-1.1 -3.3,-1.6 -0.4,-0.5 -1.9,-0.9 -3.5,-0.9 -1.6,0 -3.2,-0.4 -3.5,-1 -0.3,-0.5 -2.6,-1 -5.1,-1 -2.4,0 -4.4,-0.4 -4.4,-1 0,-0.6 -9.5,-1 -26.5,-1 H 777 v 43.3 c 0,23.9 0.3,43.7 0.7,44.1 1,1 40.4,0 48.3,-1.2 z"
       id="path3" />
    <path
       d="M 1015,1113.5 V 958 h 36 36 v 155.5 155.5 h -36 -36 z"
       id="path4" />
    <path
       d="m 1155,1246.6 c 0,-18.6 0.2,-22.6 1.5,-23.6 0.8,-0.7 1.5,-1.8 1.5,-2.5 0,-0.8 0.3,-1.5 0.8,-1.7 1.3,-0.6 6.2,-7.6 6.2,-9 0,-0.8 0.9,-2 2,-2.8 1.1,-0.8 2,-2 2,-2.7 0,-0.7 0.4,-1.3 0.8,-1.3 0.5,0 1.6,-1.5 2.5,-3.2 2.1,-4.1 3.8,-6.7 5.7,-8.9 0.8,-1 2.4,-3.5 3.5,-5.6 1.1,-2.1 2.3,-4 2.6,-4.3 0.3,-0.3 2.8,-3.9 5.4,-8 2.6,-4.1 5.1,-7.7 5.4,-8 0.8,-0.7 2.7,-3.7 4.7,-7.7 0.9,-1.8 2,-3.3 2.5,-3.3 0.5,0 0.9,-0.6 0.9,-1.4 0,-0.8 0.3,-1.6 0.8,-1.8 1,-0.4 6.2,-8.5 6.2,-9.7 0,-0.5 0.3,-1.1 0.8,-1.3 1,-0.4 5.4,-6.7 7.1,-10 0.8,-1.6 1.8,-2.8 2.3,-2.8 0.4,0 0.8,-0.7 0.8,-1.5 0,-0.8 0.4,-1.5 0.9,-1.5 0.5,0 1.3,-1 1.7,-2.2 0.3,-1.2 1.5,-3.1 2.5,-4.2 1.1,-1.1 1.9,-2.5 1.9,-3.2 0,-0.7 0.4,-1.4 0.8,-1.6 1.1,-0.4 8.2,-11.5 8.2,-12.8 0,-0.6 0.4,-1 0.8,-1 0.5,0 1.7,-1.6 2.8,-3.5 1,-1.9 2.2,-3.5 2.6,-3.5 0.5,0 0.8,-0.7 0.8,-1.6 0,-0.9 0.8,-2.4 1.8,-3.3 1,-0.9 2.1,-2.3 2.5,-3.1 1,-2.2 2.9,-5.1 5,-7.4 0.9,-1.1 1.7,-2.6 1.7,-3.3 0,-0.7 0.4,-1.3 0.9,-1.3 0.5,0 1.3,-1 1.7,-2.2 0.3,-1.2 1.5,-3.1 2.5,-4.2 1.1,-1.1 1.9,-2.6 1.9,-3.3 0,-0.7 0.4,-1.3 0.8,-1.3 0.5,0 1.7,-1.6 2.8,-3.5 1,-1.9 2.2,-3.5 2.6,-3.5 0.5,0 0.8,-0.5 0.8,-1.1 0,-0.7 1.6,-3.4 3.5,-6 1.9,-2.7 3.5,-5.4 3.5,-5.9 0,-0.6 0.5,-1 1,-1 0.6,0 1,-0.6 1,-1.4 0,-0.7 0.7,-2 1.6,-2.7 0.9,-0.7 2,-2.2 2.5,-3.4 1.2,-2.6 3,-5.4 5.2,-7.9 1,-1.2 1.7,-3.2 1.5,-4.6 l -0.3,-2.5 -60.7,-0.3 -60.8,-0.2 V 987.5 958 h 106 106 v 22.5 c 0,14.3 -0.4,22.5 -1,22.5 -0.5,0 -1,0.7 -1,1.5 0,0.8 -0.4,1.5 -0.9,1.5 -0.5,0 -1.6,1.5 -2.5,3.3 -2,4 -3.9,7 -4.7,7.7 -0.3,0.3 -2.8,3.9 -5.4,8 -2.6,4.1 -5.2,7.6 -5.6,7.8 -0.5,0.2 -0.9,0.8 -0.9,1.3 0,1.2 -5.2,9.3 -6.2,9.7 -0.5,0.2 -0.8,1 -0.8,1.8 0,0.8 -0.4,1.4 -0.9,1.4 -0.5,0 -1.7,1.8 -2.7,4 -1,2.2 -2.1,4 -2.6,4 -0.4,0 -0.8,0.5 -0.8,1 0,0.6 -0.8,2 -1.9,3.1 -1,1.1 -2.7,3.7 -3.7,5.7 -1.1,2 -2.6,4.4 -3.4,5.2 -1.8,1.8 -3.4,4.3 -5.7,8.8 -0.9,1.7 -2,3.2 -2.5,3.2 -0.4,0 -0.8,0.5 -0.8,1 0,0.6 -0.8,1.9 -1.7,3 -1,1 -2.7,3.6 -3.8,5.7 -1.1,2.1 -2.2,4 -2.5,4.3 -1.2,1.2 -5.6,7.7 -6.9,10.1 -0.7,1.4 -2.3,3.8 -3.7,5.4 -1.3,1.5 -2.9,4 -3.6,5.6 -0.7,1.6 -1.6,2.9 -2,2.9 -0.5,0 -0.8,0.7 -0.8,1.5 0,0.8 -0.4,1.5 -1,1.5 -0.5,0 -1,0.6 -1,1.4 0,0.8 -0.3,1.6 -0.7,1.8 -1.1,0.4 -6.3,8.6 -6.3,9.8 0,0.5 -0.4,1 -0.8,1 -0.5,0 -1.7,1.6 -2.8,3.5 -1,1.9 -2.2,3.5 -2.6,3.5 -0.5,0 -0.8,0.8 -0.8,1.8 0,1 -0.9,2.4 -2,3.2 -1.1,0.8 -2,2 -2,2.7 0,0.7 -0.4,1.3 -0.9,1.3 -0.5,0 -1.3,1 -1.7,2.2 -0.3,1.2 -1.5,3.1 -2.5,4.2 -1.1,1.1 -1.9,2.6 -1.9,3.3 0,0.7 -0.4,1.3 -0.8,1.3 -0.5,0 -1.7,1.6 -2.8,3.5 -1,1.9 -2.2,3.5 -2.6,3.5 -0.5,0 -0.8,0.5 -0.8,1.1 0,0.7 -1.6,3.4 -3.5,6 -1.9,2.7 -3.5,5.4 -3.5,5.9 0,0.6 -0.4,1 -0.9,1 -0.5,0 -1.3,0.9 -1.6,2 -0.3,1.1 -1.2,2.6 -1.8,3.2 -2.1,2.2 -10.7,15.7 -10.7,16.8 0,0.7 22.8,1 68,1 h 68 v 30.5 30.5 H 1267.5 1155 Z"
       id="path5" />
    <path
       d="M 1781,1113.5 V 958 h 37 c 31.3,0 37,0.2 37,1.4 0,0.8 0.3,1.6 0.8,1.8 0.4,0.1 2,3 3.7,6.3 1.6,3.3 3.2,6.2 3.5,6.5 0.4,0.3 1.5,2.6 2.6,5.2 1,2.7 2.2,4.8 2.7,4.8 0.4,0 0.7,0.9 0.7,1.9 0,1.1 0.3,2.1 0.8,2.3 0.4,0.1 2.9,4.8 5.7,10.3 2.7,5.5 5.2,10.2 5.6,10.5 0.3,0.3 1,1.6 1.4,3 0.4,1.4 1.6,3.7 2.6,5.2 1.1,1.4 1.9,3.1 1.9,3.7 0,0.6 0.5,1.1 1,1.1 0.6,0 1,0.6 1,1.2 0,1.6 5.3,12.2 6.3,12.6 0.4,0.2 0.7,1.2 0.7,2.3 0,1 0.5,1.9 1,1.9 0.6,0 1,0.4 1,1 0,1.1 5.1,12.2 6,13 0.3,0.3 1.8,3.2 3.5,6.5 1.6,3.3 3.2,6.2 3.5,6.5 0.4,0.3 1.3,2 2.1,3.8 0.8,1.7 1.7,3.2 2.1,3.2 0.5,0 0.8,0.7 0.8,1.5 0,1.7 5.1,11.8 6.3,12.3 0.4,0.2 0.7,1.2 0.7,2.3 0,1 0.5,1.9 1,1.9 0.6,0 1,0.5 1,1.1 0,1.3 3.1,8.2 4,8.9 0.6,0.5 3.3,6.2 6.7,14 0.9,1.9 2.6,6 4,9 1.4,3 2.8,6.4 3.3,7.5 0.4,1.1 2.4,5.4 4.4,9.6 2,4.1 3.6,7.9 3.6,8.3 0,1.3 6.4,14.1 7.2,14.4 0.4,0.2 0.8,1.3 0.8,2.3 0,3.8 3.9,10.9 6,10.9 1.8,0 2,-0.7 1.9,-7.7 0,-4.3 -0.5,-11.4 -1,-15.8 -2.3,-18.6 -3,-25.5 -3.5,-33.5 -0.3,-4.7 -1,-8.9 -1.5,-9.5 -0.5,-0.5 -0.9,-5.3 -0.9,-10.6 0,-5.5 -0.4,-10.1 -1,-10.4 -0.7,-0.4 -1,-23.7 -1,-66.6 V 958 h 34.5 34.5 v 155.5 155.5 l -37.2,-0.2 -37.3,-0.3 -1,-2.2 c -0.5,-1.3 -1.3,-2.3 -1.7,-2.3 -0.5,0 -0.8,-0.7 -0.8,-1.5 0,-1.7 -5.1,-11.8 -6.2,-12.3 -0.5,-0.2 -0.8,-0.9 -0.8,-1.5 0,-1.5 -7.3,-16.1 -8.2,-16.5 -0.5,-0.2 -0.8,-1 -0.8,-1.7 0,-0.7 -1.5,-3.9 -3.3,-7.2 -1.7,-3.2 -5,-9.4 -7.2,-13.8 -2.2,-4.4 -4.3,-8.1 -4.7,-8.3 -0.5,-0.2 -0.8,-1 -0.8,-1.8 0,-0.8 -0.4,-1.4 -0.9,-1.4 -0.5,0 -1.2,-1.6 -1.5,-3.5 -0.4,-1.9 -1.1,-3.5 -1.6,-3.5 -0.6,0 -1,-0.9 -1,-1.9 0,-1.1 -0.3,-2.1 -0.8,-2.3 -0.4,-0.1 -2.9,-4.8 -5.7,-10.3 -2.7,-5.5 -5.3,-10.1 -5.7,-10.3 -0.5,-0.2 -0.8,-0.9 -0.8,-1.5 0,-1.1 -7,-15.8 -8,-16.7 -0.3,-0.3 -2.3,-4.1 -4.5,-8.5 -2.2,-4.4 -4.3,-8.1 -4.7,-8.3 -0.5,-0.2 -0.8,-0.8 -0.8,-1.3 0,-1.6 -3.5,-8.9 -4.2,-8.9 -0.5,0 -0.8,-0.9 -0.8,-2 0,-1.1 -0.4,-2 -1,-2 -0.5,0 -1,-0.6 -1,-1.3 0,-1.3 -1.9,-5.9 -4.1,-9.9 -0.5,-1 -0.9,-2.5 -0.9,-3.3 0,-0.8 -0.4,-1.5 -1,-1.5 -0.5,0 -1,-0.9 -1,-2 0,-1.1 -0.4,-2 -1,-2 -0.5,0 -1,-0.7 -1,-1.5 0,-0.8 -1.1,-3.8 -2.5,-6.7 -1.4,-2.8 -2.5,-5.8 -2.5,-6.5 0,-0.7 -0.4,-1.3 -1,-1.3 -0.5,0 -1,-0.7 -1,-1.5 0,-0.8 -0.4,-2.3 -0.9,-3.3 -0.6,-0.9 -2.2,-4.4 -3.6,-7.7 -1.5,-3.3 -3.6,-7.8 -4.6,-10 -1,-2.2 -2.3,-5.3 -2.9,-6.8 -0.8,-2.2 -1.6,-2.8 -3.3,-2.5 -2.1,0.3 -2.2,0.7 -2,8.8 0.4,13.5 1.4,24.4 2.4,25.4 0.5,0.6 0.9,4.5 0.9,8.7 0,4.3 0.5,8.1 1,8.4 0.6,0.3 1,4.8 1,10 0,6.5 0.4,9.5 1.2,9.7 1,0.4 1.3,17 1.6,74.6 l 0.4,74.2 h -34.1 -34.1 z"
       id="path6" />
    <path
       d="M 18,1114.5 V 963 h 37 37 v 48.1 c 0,31.2 0.4,48.7 1,50 1,1.8 2.7,1.9 56.9,1.9 50,0 55.9,-0.2 56.5,-1.6 0.3,-0.9 0.6,-23.4 0.6,-50 V 963 h 37.5 37.5 v 151.5 151.5 l -48.2,-0.2 -48.3,-0.3 v -15.7 c 0,-8.6 0.3,-16 0.7,-16.4 0.4,-0.4 1.3,-0.2 2,0.3 0.7,0.5 3.8,1.5 6.8,2.1 3,0.6 7.8,1.6 10.5,2.2 9,2 13.9,3 18,3.6 2.2,0.3 4.9,1 6,1.4 3.8,1.7 10.3,3 11.8,2.4 0.9,-0.3 1.8,-1.1 2,-1.8 0.8,-2 -0.5,-6.7 -1.9,-7.3 -0.8,-0.3 -1.4,-1 -1.4,-1.6 0,-0.6 -0.7,-1.9 -1.7,-2.9 -1.7,-1.9 -2.9,-3.8 -5.8,-9.5 -1,-1.8 -2.1,-3.3 -2.6,-3.3 -0.5,0 -0.9,-0.6 -0.9,-1.4 0,-0.7 -0.6,-1.9 -1.3,-2.5 -0.8,-0.6 -2.4,-3.1 -3.7,-5.6 -1.3,-2.5 -2.7,-4.5 -3.2,-4.5 -0.4,0 -0.8,-0.5 -0.8,-1.1 0,-0.6 -1.2,-2.6 -2.6,-4.5 -1.5,-1.9 -2.5,-3.6 -2.3,-3.8 0.2,-0.2 3.9,0.3 8.2,1.2 7,1.4 8,1.4 9.3,0 1.8,-1.8 1.1,-5.7 -1.7,-8.7 -1,-1.1 -1.9,-2.3 -1.9,-2.5 0,-0.8 -7.2,-11.9 -8.7,-13.5 -0.8,-0.7 -2.3,-3.1 -3.4,-5.4 -1.2,-2.2 -2.8,-4.7 -3.5,-5.5 -0.8,-0.8 -2.2,-2.8 -3,-4.4 -0.9,-1.7 -3.1,-5.2 -5,-7.8 l -3.4,-4.7 4,0.7 c 4.4,0.8 8.3,-0.6 8.8,-3.1 0.2,-0.9 -2.1,-4.9 -5.1,-8.8 -3,-4 -6.1,-8.4 -6.8,-9.9 -0.8,-1.5 -3.2,-5.2 -5.4,-8.2 -5.8,-8 -11.5,-16.9 -11.5,-18 0,-0.6 -0.4,-1 -0.8,-1 -0.4,0 -1.3,-1.2 -1.9,-2.7 -1.4,-3.3 -4.3,-8.2 -6.1,-10.1 -0.6,-0.7 -1.7,-2.2 -2.2,-3.3 -1.8,-3.2 -8,-1.6 -8,2 0,0.6 -0.4,1.1 -0.8,1.1 -0.5,0 -2.1,2.1 -3.6,4.8 -3.9,6.8 -4.8,8.4 -7.3,11.5 -1.3,1.6 -2.3,3.5 -2.3,4.3 0,0.8 -0.4,1.4 -0.8,1.4 -0.5,0 -1.9,1.9 -3.2,4.3 -1.3,2.3 -2.6,4.4 -3,4.7 -0.3,0.3 -3,4.3 -6,9 -2.9,4.7 -5.6,8.7 -5.9,9 -0.3,0.3 -1.3,1.9 -2.1,3.5 -0.8,1.7 -2.1,4 -2.8,5.3 l -1.4,2.2 -2.4,-2.5 c -1.3,-1.4 -2.4,-3 -2.4,-3.5 0,-0.5 -0.7,-1.6 -1.5,-2.4 -0.9,-0.9 -2.1,-2.6 -2.8,-3.8 -4.2,-7.7 -6.2,-9.8 -9.1,-9.6 -2.4,0.3 -3.7,1.6 -7.8,8.1 -2.6,4.3 -4.8,8.1 -4.8,8.3 0,0.3 -0.9,1.5 -2,2.7 -1.2,1.2 -2.4,3.3 -2.7,4.7 -0.4,1.4 -1.9,3.7 -3.5,5.2 -1.5,1.4 -2.8,3.3 -2.8,4.1 0,0.8 -0.7,2 -1.5,2.7 -0.8,0.7 -1.5,1.8 -1.5,2.5 0,0.7 -1.6,3 -3.5,5.1 -5,5.5 -4.3,9.4 1.7,9.4 3.3,0 3,1.5 -1.7,7.5 -1.7,2.2 -3.7,5.4 -4.5,7 -0.8,1.7 -2.3,3.7 -3.2,4.6 -1,0.9 -1.8,2.3 -1.8,3 0,0.8 -1,2.6 -2.2,4 -2.5,2.8 -4.2,5.2 -6,8.6 -0.8,1.7 -0.8,2.6 0.3,3.9 1.1,1.3 2.5,1.5 7.2,1 5.3,-0.5 5.7,-0.4 4.8,1.2 -0.6,1 -1.7,2.4 -2.5,3.2 -0.9,0.7 -1.6,1.7 -1.6,2.2 0,0.5 -1.1,2.4 -2.5,4.2 -1.4,1.8 -2.5,3.8 -2.5,4.4 0,0.6 -0.3,1.2 -0.7,1.4 -1.5,0.6 -6.3,7.7 -6.3,9.2 0,0.9 -0.4,1.6 -1,1.6 -0.5,0 -1,0.5 -1,1.2 0,0.6 -0.7,1.9 -1.6,2.9 -1.3,1.4 -1.3,2.2 -0.4,3.9 1,1.9 1.8,2.1 4.8,1.7 2.1,-0.4 6.5,-1 9.9,-1.6 3.4,-0.5 7.7,-1.4 9.5,-2 6.3,-2 15.3,-3.6 18.1,-3.3 l 2.8,0.3 -0.3,10.7 -0.3,10.7 -40.2,0.3 -40.3,0.2 z m 86.1,2.2 c -1.3,-1.3 -2.6,-0.3 -1.6,1.2 0.3,0.6 1.1,0.8 1.7,0.5 0.6,-0.4 0.6,-1 -0.1,-1.7 z"
       id="path7" />
  </g>
  <rect
     style="fill:#000000"
     id="rect11"
     width="7.9892392"
     height="6.5175371"
     x="80.523117"
     y="160.836" />
</svg>
