<?xml version="1.0" encoding="UTF-8" standalone="no"?>
<svg
   version="1.0"
   width="2048"
   height="2048"
   viewBox="0 0 2048 2048"
   preserveAspectRatio="xMidYMid"
   id="svg20"
   xmlns="http://www.w3.org/2000/svg"
   xmlns:svg="http://www.w3.org/2000/svg">
  <defs
     id="defs20" />
  <g
     fill="#000000"
     id="g19">
    <path
       d="m 93,2038 c -4.1,-2.8 -9,-5.5 -10.8,-6.1 l -3.2,-1.1 0.2,-73.6 0.3,-73.7 96,-0.5 c 88.4,-0.5 96.3,-0.6 100.4,-2.2 4.1,-1.7 43,-1.8 766.6,-1.8 723.6,0 762.5,0.1 766.6,1.8 4,1.5 11.2,1.7 82.9,2.2 l 78.5,0.5 0.3,79.8 0.2,79.7 H 1035.8 100.5 Z"
       id="path1" />
    <path
       d="m 224.5,1811.2 c -3.6,-1.5 -11.6,-1.7 -74.5,-2.2 L 79.5,1808.5 79.2,1715.8 79,1623 H 343.5 608 v -45.9 c 0,-29.6 0.4,-46.2 1,-46.6 0.6,-0.3 1,-1.4 1,-2.4 0,-2.2 6.6,-8.7 10.3,-10 1.6,-0.6 8.8,-1.1 16.1,-1.1 10,0 14.3,-0.4 17.2,-1.6 4.7,-2 5.4,-2.9 5.4,-7.5 0,-6.7 2.6,-7.4 28.7,-8.5 12.1,-0.5 13.3,-0.7 13.8,-2.6 0.4,-1.1 2.7,-2.8 5.2,-3.9 3.8,-1.6 6.9,-1.9 20.7,-1.9 15,0 16.4,-0.2 18.1,-2 2.8,-3.1 8.3,-2.6 13.1,1 2.1,1.6 4.9,3 6,3 3.5,0 9.2,2.8 10.5,5.1 1,2 0.9,4.9 -0.8,15.4 -0.6,3.9 -0.2,56.8 0.7,89.3 0.1,2.3 0.1,4.8 0.1,5.5 0,0.6 0.3,4.1 0.7,7.7 l 0.7,6.5 178.4,0.3 c 131.7,0.1 178.7,-0.1 179.8,-0.9 1.1,-1 1.3,-19 0.9,-110.3 -0.2,-60 -0.7,-111.9 -1.1,-115.4 l -0.7,-6.2 6.9,-6.9 6.9,-6.9 17,-0.7 c 16.1,-0.6 23.3,-1.6 26.3,-3.9 6.7,-5.2 36.1,-7 78,-4.9 12.9,0.6 16.5,1.1 16.9,2.2 0.3,0.8 1.5,2.5 2.8,3.8 2.2,2.2 2.9,2.3 19.6,2.3 19.8,0 24.1,1.1 27.4,7.1 1.8,3.3 1.9,8.4 2.4,121.2 0.4,103.2 0.7,117.9 2,118.7 0.9,0.6 119.7,1 316.3,1 H 1971 l -0.2,92.8 -0.3,92.7 -53,0.5 c -46.4,0.5 -53.5,0.8 -57,2.2 -3.7,1.6 -61,1.7 -818,1.7 -758.8,0 -814.3,-0.1 -818,-1.7 z"
       id="path2" />
    <path
       d="m 246.5,1522.4 c -1.1,-1.1 -1.5,-3 -1.3,-5.8 l 0.3,-4.1 5.9,-0.3 c 6.7,-0.4 7.6,0.3 7.6,6 0,2.7 -0.5,4 -1.9,4.8 -3,1.5 -8.8,1.2 -10.6,-0.6 z"
       id="path3" />
    <path
       d="m 201.9,1508.1 c -1.9,-1.5 -2.4,-3 -2.7,-8.8 -0.3,-5.1 0,-7.8 1.2,-10.1 2.1,-4 3.1,-4.6 9.1,-5.2 4.6,-0.5 5.2,-0.8 6.8,-4.2 1.2,-2.4 2.6,-3.8 3.7,-3.8 3.1,0 5,-3.9 5,-10.5 0,-8.2 1.5,-12.9 4.5,-14.5 1.3,-0.7 2.9,-2.8 3.6,-4.7 0.6,-1.9 2.4,-4.3 4,-5.5 2.3,-1.7 2.9,-3 2.9,-5.8 0,-4.5 1.8,-10.4 5.4,-18 0.9,-2 2,-2.6 5.5,-2.8 2.3,-0.2 4.9,0.2 5.7,0.9 1.1,0.9 1.4,0.7 1.4,-1.5 0,-1.7 1.5,-4.2 4.2,-7.2 4.1,-4.5 4.2,-4.6 4,-11.6 -0.2,-6.8 -0.1,-7.2 3.1,-10.2 4,-3.7 13.2,-18 14.1,-21.8 0.8,-3.5 5.2,-5.8 11,-5.8 h 4.5 l 0.3,-8.2 0.3,-8.3 3.2,-0.3 c 3.3,-0.3 3.6,-0.8 4.7,-7.3 0.7,-3.9 2.9,-6.5 6.1,-7.1 1.8,-0.3 2.1,-1.3 2.5,-8.9 0.3,-5.3 1,-9.3 1.9,-10.3 2.2,-2.6 6.6,-4.6 10.1,-4.6 2.8,0 3.3,-0.5 5.2,-4.9 1.5,-3.7 2.8,-5.2 4.9,-6 2.5,-0.9 2.9,-1.5 2.9,-5 0,-2.2 0.5,-4.3 1,-4.6 0.6,-0.3 1,-2.7 1,-5.3 0,-5.2 0.6,-6.5 3.3,-7.5 0.9,-0.4 2,-1.5 2.3,-2.4 1.4,-4.3 3,-6.6 5.6,-7.9 2.4,-1.3 2.8,-2 2.8,-5.8 0,-3.3 0.7,-5.2 2.6,-7.5 2.3,-2.8 3.1,-3.1 8.4,-3.1 6.7,0 7,-0.3 7,-9 0,-6.6 1.4,-10.7 4.1,-11.5 1,-0.3 2.9,-2.6 4.3,-5 1.5,-2.4 3.5,-5 4.5,-5.7 2.1,-1.6 4.1,-5 4.1,-7.3 0,-0.9 0.9,-2.9 1.9,-4.4 1,-1.4 2.4,-4.6 3.1,-7.1 0.7,-2.5 1.5,-4.9 1.9,-5.5 0.5,-0.5 1.4,-3.1 2.1,-5.7 l 1.2,-4.7 6.1,-0.3 6.1,-0.3 1.6,-4.3 c 0.8,-2.4 2.3,-4.8 3.3,-5.3 1.2,-0.7 1.7,-2.2 1.7,-5 0,-2.2 0.8,-5.1 1.7,-6.6 l 1.7,-2.6 -3.4,0.6 c -1.9,0.3 -5.7,1.1 -8.3,1.8 -3.7,1 -5.6,1 -7.8,0.2 -3.2,-1.2 -3.1,-1.3 -6.9,3.8 l -1.9,2.6 -17.2,0.1 c -10.9,0.2 -17.7,0.6 -18.6,1.3 -0.7,0.6 -1.3,3 -1.3,5.3 0,2.2 -0.6,4.8 -1.3,5.7 -1.7,2.3 -13,3.9 -27,3.9 -9.2,0 -11.7,0.3 -12.8,1.6 -3.1,3.7 -9.3,5.8 -19.4,6.5 -5.5,0.4 -11.3,1 -12.8,1.4 -4.2,1.1 -11.2,-1.2 -12.6,-4.1 -1.3,-3 -1.4,-8.5 -0.2,-11.6 0.6,-1.3 1.3,-6.3 1.6,-11.1 0.7,-8.7 0.8,-8.9 5.1,-13.9 2.5,-2.7 4.7,-6.3 5.1,-7.9 0.7,-3.7 2.9,-4.9 8.6,-4.9 4.3,0 4.4,0 6.5,-5.3 1.2,-2.9 2.2,-7.1 2.2,-9.3 0,-3.1 0.6,-4.6 2.9,-6.8 1.6,-1.6 3.5,-4.1 4.1,-5.6 0.6,-1.5 2.4,-3.7 4.1,-4.9 2,-1.5 2.9,-3 2.9,-5.1 0,-2.8 3.8,-9.6 6.3,-11.2 0.7,-0.4 2.9,-0.8 4.9,-0.8 5,0 6.8,-2.7 6.8,-10.2 0,-5.7 0.1,-5.8 3.5,-7.2 2.4,-1 3.5,-2.1 3.5,-3.6 0,-3 2.5,-7.5 5.5,-9.8 2.2,-1.8 2.5,-2.7 2.5,-8.5 0,-8 1.2,-11.4 4.4,-12.7 1.4,-0.5 3.2,-2.3 4.1,-4 0.9,-1.7 2.7,-3.6 4,-4.2 1.8,-0.8 2.5,-2 2.7,-4.7 0.3,-3.6 0.3,-3.6 5,-3.5 4.3,0 4.8,-0.2 5.7,-2.8 0.6,-1.5 2.3,-3.3 3.8,-4 3.9,-1.7 4.3,-2.5 4.3,-9.3 0.2,-9.5 1.2,-13.9 3.5,-14.3 2.4,-0.5 5.4,-4 5.5,-6.5 0,-1 1.2,-3 2.8,-4.5 4.2,-4.2 4.9,-6.1 6.9,-18.2 0.8,-5.3 2.8,-7 8.5,-7 h 4.8 l 2.6,-5.7 c 1.4,-3.2 3.6,-6.9 4.9,-8.3 1.9,-2 2.5,-3.8 2.7,-9 0.3,-6.1 0.5,-6.6 3.3,-7.9 3.6,-1.7 4.5,-2.8 4.5,-5.9 0,-5.9 5.6,-11.2 11.8,-11.2 3.1,0 6.2,-2.6 6.2,-5.2 0,-0.8 1,-2.3 2.1,-3.4 3,-2.6 4.9,-7.5 4.9,-12.3 0,-5.1 2.6,-10.6 5.6,-12 1.4,-0.6 2.4,-1.9 2.4,-3 0,-1.1 1.8,-3.9 4,-6.2 2.2,-2.3 4,-4.6 4,-4.9 0,-0.4 0.7,-2.1 1.5,-3.6 0.8,-1.6 1.5,-5 1.5,-7.6 0,-5.1 2.3,-7.8 6.5,-7.8 3.6,0 7.5,-2.4 7.5,-4.5 0,-3 1.3,-4.5 4.6,-5.4 2.7,-0.7 2.9,-1 3.2,-6.7 0.4,-9.2 0.8,-10.2 4.4,-10.6 4.1,-0.4 6,-3.4 3.4,-5.3 -1.3,-1 -2.3,-1.2 -3.2,-0.5 -0.6,0.6 -5.8,1 -11.7,0.9 -5.7,-0.1 -10.9,0.1 -11.6,0.5 -0.6,0.4 -1.1,1.7 -1.1,2.9 0,1.2 -0.7,4 -1.4,6.2 -2,5.7 -4.5,6.4 -21.3,6.5 h -14.2 l -2,2.9 c -4.9,6.8 -22.6,8.3 -24.6,2 -0.4,-1.3 -1.8,-1.9 -4.7,-2.1 -5.9,-0.4 -8,-4.4 -8.6,-15.9 -0.4,-8.2 -0.3,-8.7 1.9,-10.3 1.3,-0.9 3.9,-1.6 5.7,-1.6 2.5,0 4.2,-0.8 6.3,-3.1 1.6,-1.7 2.9,-3.7 2.9,-4.4 0,-0.7 0.7,-1.9 1.7,-2.6 0.9,-0.8 2.2,-2.7 2.9,-4.4 0.7,-1.8 2.8,-3.8 5.1,-5 l 3.8,-2 0.5,-9.1 c 0.3,-5.4 1,-9.8 1.8,-10.7 1.9,-2.2 7.7,-4 11.3,-3.5 2.8,0.4 3.1,0.2 4.2,-4 0.6,-2.4 2.1,-5.4 3.3,-6.5 3.4,-3.5 4.4,-6.2 4.4,-12.2 0,-5.7 1.6,-10.1 4.5,-12.5 0.9,-0.7 3.2,-3.7 5.2,-6.7 1.9,-2.9 3.9,-5.3 4.4,-5.3 1.1,0 3.1,-3.8 3.9,-7.5 0.6,-2.9 0.7,-3 7.5,-3.5 l 7,-0.5 0.5,-9.3 c 0.5,-9 0.6,-9.5 3.5,-11.8 5.9,-4.6 6.5,-5.4 6.5,-8.2 0,-1.6 0.7,-3.7 1.5,-4.8 0.8,-1 1.5,-3.5 1.5,-5.5 0,-1.9 0.4,-3.9 0.9,-4.5 0.5,-0.5 2.1,-3.1 3.6,-5.9 1.5,-2.7 4,-6 5.6,-7.3 1.6,-1.3 2.9,-3.3 2.9,-4.6 0,-1.2 1.3,-3.4 2.8,-4.9 2.3,-2.2 3.7,-2.7 7.9,-2.7 h 5.2 l 0.5,-5.2 c 0.3,-2.9 0.7,-7.1 0.9,-9.3 0.1,-3.1 0.7,-4.2 2.7,-5.2 3.2,-1.6 5,-4.1 5,-7 0,-1.2 2,-4.5 4.5,-7.3 3,-3.4 4.5,-6 4.5,-7.8 0,-3.2 1.6,-5.2 4.1,-5.2 2.2,0 2.9,-2 2.9,-8.1 0,-6.3 2.3,-8.9 8.1,-8.9 5.5,0 7.9,-1.5 7.9,-4.9 0,-4.5 2,-9.1 3.9,-9.1 2.7,0 5.1,-3.3 5.1,-6.8 0,-2.2 0.7,-3.6 2.1,-4.4 3,-1.8 5.9,-8.1 5.9,-12.6 0,-2.2 0.7,-5.6 1.5,-7.6 1.5,-3.5 1.7,-3.6 6.8,-3.6 8.1,0 9.4,-1.8 10.4,-14.3 0.4,-4.5 1.1,-6.3 3.2,-8.5 1.5,-1.5 3.3,-4.2 4.1,-6.1 0.8,-2 2.4,-3.7 4,-4.2 1.9,-0.7 2.9,-2.1 3.9,-5.3 0.7,-2.5 2.2,-5.3 3.3,-6.3 3.3,-3 4.8,-6.9 4.8,-12.6 0,-6.1 1.3,-8.3 5.5,-9 9.9,-1.8 9.8,-1.8 11.6,-8.7 1.3,-5.2 2,-6.6 3.7,-6.8 2.7,-0.4 5.2,-3.8 5.2,-7 0,-1.5 1,-2.9 3,-4 2.2,-1.2 3,-2.5 3,-4.4 0,-1.5 0.5,-3 1,-3.3 1.9,-1.2 1,-6.7 -1.6,-9.8 -2.2,-2.6 -2.5,-3.8 -2.1,-7.7 0.8,-7.8 2.2,-10 6.1,-10 3.7,0 4.6,1.2 4.6,6 0,4.1 1.9,4.8 4.5,1.7 1.9,-2.5 2.6,-2.7 9.6,-2.7 7,0 8.1,0.3 13.9,3.7 8.1,4.8 10,7.9 10,16.1 0,6.4 2,10.2 5.4,10.2 1.7,0 2.6,2.2 2.6,6 0,3.6 1.2,4.4 8,5 5.5,0.5 5.5,0.5 8,5.7 1.4,2.9 3.5,6.3 4.7,7.5 3.3,3.6 4.3,6.3 4.3,11.3 0,5.2 1,7.7 4.8,11.7 1.4,1.5 2.8,4.4 3.1,6.5 0.5,3.2 1.3,4.2 4.6,5.9 3.9,2 4,2.2 4.5,8.1 0.5,6.5 3.1,10.5 7.4,11.9 3.4,1.1 7.5,4.6 9.6,8.1 1.1,1.8 3,3.8 4.4,4.4 2.9,1.3 4.2,4.4 5,11.4 0.7,5.8 2.4,10.9 4.8,14.5 0.9,1.4 2,3.8 2.4,5.4 0.4,1.8 1.7,3.2 3.6,4.1 1.9,0.8 3.6,2.6 4.8,5.3 2,4.3 6.1,7.5 11.8,9.1 4.9,1.4 9.2,6.5 9.2,11 0,2 -0.4,4.3 -0.9,5.1 -0.7,1 -0.4,1.8 0.8,2.7 1.1,0.7 2.4,3.8 3.2,7.4 1.1,5.1 2,6.6 5.1,9.1 2.1,1.6 3.8,3.6 3.8,4.4 0,0.9 1.3,2.7 2.9,4.2 3,2.8 3.6,4.5 5.2,15.2 0.6,3.6 1.5,7 2.1,7.7 0.6,0.8 3.3,1.3 6.3,1.3 5.4,0 8.5,1.9 8.5,5.2 0,0.8 1.1,2 2.4,2.6 5.4,2.4 6.1,5.2 5.9,21.9 -0.1,8.5 -0.7,16.2 -1.3,17.3 -0.6,1.1 -2.4,2.7 -4,3.5 -2.4,1.3 -3,2.2 -3,4.9 0,3.8 -1.4,4.6 -9,4.6 -2.6,0 -5.1,0.5 -5.8,1.2 -0.7,0.7 -1.2,3.8 -1.2,7 0,5.3 -0.3,6 -3.9,9.6 -3,3 -4.1,5.1 -5.1,9.5 -1,4.9 -1.4,5.7 -3.4,5.7 -3.4,0 -4.4,1.8 -5.7,10.1 -1.8,11.7 -1.8,11.9 -4.3,13 -2.9,1.4 -4.6,4.8 -4.6,9.4 0,4.2 -2.9,6.5 -8.1,6.5 -4.5,0 -8.9,3.2 -8.9,6.5 0,1.7 -0.9,2.9 -3,4 -2.9,1.5 -3,1.8 -3,8.3 0,7.1 -1.1,9.8 -4.4,10.4 -2.2,0.3 -2.9,1.6 -4.7,7.6 -0.7,2.4 -2.5,5.4 -4.1,6.7 -2.4,2 -2.8,3.1 -2.8,7.2 0,6.6 -2.9,11.3 -7.1,11.3 -4.1,0 -9.7,4.5 -11.9,9.6 -1,2.3 -3.2,5.1 -4.9,6.3 -1.9,1.4 -3.1,3.1 -3.1,4.5 0,1.3 -0.7,4.3 -1.5,6.6 -0.8,2.3 -1.5,5.5 -1.5,7 0,1.6 -1.1,4.1 -2.4,5.7 -1.3,1.5 -2.7,3.9 -3.1,5.1 -0.4,1.4 -2.1,3 -4.1,3.8 -2.8,1.2 -3.4,2 -3.4,4.5 0,1.7 -1.1,4.5 -2.6,6.5 -2.1,2.7 -3.4,3.4 -5.9,3.4 -5.9,0 -10.3,8.4 -7,13.4 0.9,1.4 1.5,3.9 1.3,5.8 -0.3,3 -0.6,3.3 -4.1,3.6 -2.1,0.2 -4.5,-0.2 -5.3,-0.9 -1.2,-0.9 -1.4,-0.6 -1.4,2 0,3.9 -3.1,10.2 -5.9,11.9 -1.2,0.7 -2.1,2.1 -2.1,3.1 0,4.5 -0.9,5.1 -7.9,5.1 -6.3,0 -6.9,0.2 -7.9,2.5 -0.7,1.4 -1.2,5.6 -1.2,9.3 0,9 -0.6,10.7 -4.5,12.8 -2.5,1.3 -3.5,2.7 -4,5.2 -0.5,2.6 -1.4,3.7 -4.1,4.8 L 670,962 v 9.3 c 0,9.9 -0.7,11.7 -4.7,11.7 -2.3,0 -5.3,4.2 -5.3,7.7 0,1 -1.2,3 -2.5,4.6 -1.9,2.1 -3.3,2.7 -6.4,2.7 -2.2,0 -4.3,-0.6 -4.8,-1.2 -1.6,-2.5 -2.7,29.4 -1.7,49 l 0.6,11.2 h 4.4 c 5.1,0 10.4,2.3 10.4,4.6 0,0.8 1.8,3.4 4,5.6 3.5,3.7 4,4.8 4,9 0,4.8 0.1,4.9 4.4,6.7 3,1.3 4.5,2.7 5,4.4 0.3,1.4 1.4,2.8 2.4,3.1 2.2,0.6 27,1.1 44.4,0.8 l 13.7,-0.2 3.4,-3.3 3.3,-3.4 13.5,-0.6 13.4,-0.6 2.2,2.7 c 1.9,2.3 2.3,3.9 2.3,10.3 0,6.6 -0.3,7.8 -2.3,9.7 -1.4,1.3 -3.6,2.2 -5.5,2.2 -3.3,0 -7.2,2.9 -7.2,5.4 0,1.4 -3.9,5.1 -6.2,5.8 -0.6,0.2 -1.5,3.4 -1.8,7 -1.1,9.8 -3.1,15.9 -5.8,17.1 -1.2,0.6 -2.5,2.1 -2.8,3.4 -0.4,1.3 -2.3,3.7 -4.4,5.3 -4,3.2 -4.8,5.3 -5.7,15.2 -0.2,3.1 -1.1,6.2 -1.9,6.9 -0.7,0.6 -3.7,1.4 -6.6,1.8 -5.1,0.6 -5.4,0.8 -7.2,4.9 -1.1,2.3 -2.5,4.2 -3.2,4.2 -0.7,0 -2,0.8 -2.9,1.7 -1.4,1.4 -1.6,2.9 -1.1,9.2 0.3,4.2 0.2,8.2 -0.2,8.9 -0.5,0.7 -2.4,2.1 -4.3,3.1 -2.2,1.2 -3.6,2.8 -4,4.7 -0.8,4.1 -2.7,7.4 -4.3,7.4 -0.8,0 -1.9,0.6 -2.6,1.4 -0.6,0.8 -2.8,1.6 -4.8,1.8 -3.3,0.3 -3.8,0.7 -5.3,4.8 -1.1,3 -2.7,5.1 -4.8,6.3 -2.9,1.8 -3.1,2.3 -3.1,7.5 0,6.8 -1.6,10.4 -5,11.2 -1.9,0.5 -2.7,1.5 -3.3,4.5 -0.4,2.2 -1.1,5.3 -1.4,6.8 -0.3,1.6 -1.3,3.1 -2.2,3.4 -2.7,1 -6.1,4.5 -6.1,6.4 0,1 -0.5,2.1 -1,2.4 -0.7,0.4 -0.7,1.2 0,2.5 1.6,3 1.2,8.5 -0.8,10.3 -1.2,1.1 -3.6,1.7 -7.1,1.7 -4,0 -5.3,0.4 -5.7,1.8 -1.6,5.1 -3.6,8.3 -5.8,9.1 -1.6,0.7 -2.7,2.3 -3.7,5.7 -0.9,3 -2.8,6.1 -5.1,8.3 -3.5,3.5 -3.7,3.9 -4,11.1 -0.3,7.1 -0.4,7.5 -2.8,7.8 -3.5,0.5 -5,2 -5,5 0,3.7 -3.6,8.8 -7.3,10.2 -7.5,2.8 -8.1,3.5 -9.2,10.2 -0.8,4.8 -1.5,6.5 -3.1,7.3 -4,2 -5.4,3.7 -5.4,6.6 0,3.3 -3.8,9.6 -6.2,10.4 -1,0.4 -1.8,1.6 -1.8,2.8 -0.1,4.2 -2.3,5.7 -8.3,5.7 -7,0 -7.6,0.9 -8.4,12.6 -0.6,8.4 -0.6,8.5 -4.5,11.5 -2.5,2.1 -3.8,3.9 -3.8,5.5 0,3.8 -3.5,9.9 -6.7,11.4 -1.7,0.8 -7.6,1.5 -14.8,1.7 -16.2,0.5 -15.8,0.4 -17.4,5.8 -0.9,3 -2.5,5.5 -4.8,7.4 -4,3.3 -7.1,3.8 -29.3,4.7 -11.1,0.5 -13.9,0.9 -15.5,2.3 -4.5,4.1 -6.7,4.5 -25.3,5.1 l -18.2,0.5 -2.4,2.8 c -3.1,3.6 -9.5,4.7 -27.2,4.7 -8.8,0 -13.4,0.4 -14.2,1.2 -0.7,0.7 -1.2,3.2 -1.2,5.5 0,3.3 -0.6,5 -2.5,6.8 -2.1,2.2 -3.3,2.5 -10.2,2.5 -16.1,0.1 -27.2,1.5 -29.6,3.7 -3.5,3.2 -14.9,5 -37.2,5.9 -8.4,0.4 -13.5,1 -14.5,1.8 -2.4,2.1 -8.1,4.6 -10.4,4.6 -1.2,0 -3.9,1.4 -6,3 -4.7,3.6 -9.5,4 -11.4,1 -1.1,-1.8 -2.3,-2 -10.6,-2 -7.3,0 -9.6,0.3 -10.7,1.6 -0.7,0.8 -3,2.4 -5,3.5 -3.2,1.6 -6,1.9 -17.7,1.9 -12.2,0 -14.3,-0.2 -16.3,-1.9 z"
       id="path4" />
    <path
       d="m 188.3,1479.4 c -0.7,-0.3 -1.3,-2.1 -1.3,-4 v -3.4 h 5.1 5 l -0.3,3.8 c -0.3,3.5 -0.5,3.7 -3.8,3.9 -1.9,0.1 -4.1,0 -4.7,-0.3 z"
       id="path5" />
    <path
       d="m 616.9,1460.1 c -6.3,-2 -6.9,-2.8 -6.9,-9.2 0,-5.6 0.2,-6.1 3,-7.7 2.7,-1.6 2.9,-2.1 3.2,-8.7 0.3,-6.9 0.4,-7 3.8,-8.7 3.5,-1.8 4.1,-3 5.7,-11.1 0.3,-1.8 1.8,-3.7 3.9,-5 3.4,-2.2 4.2,-4.1 2.4,-5.2 -0.5,-0.3 -1,-4.2 -1,-8.7 v -8.1 l 7.2,0.8 c 8.6,0.8 8.8,0.9 8.8,4.1 0,1.3 0.5,2.4 1,2.4 0.6,0 1,-2.3 1,-5 0,-6 2,-11.4 4.8,-12.9 3.6,-1.9 5.2,-4.2 5.2,-7.5 0,-2.4 1,-4.1 4,-7.1 2.7,-2.7 4,-4.8 4,-6.7 0,-5.6 2.2,-12.8 5.1,-16.4 1.6,-2 2.9,-4.2 2.9,-4.9 0,-0.7 1.6,-2.7 3.5,-4.4 2.6,-2.3 4.5,-3.1 7.3,-3.1 5.4,0 6.2,-1.3 6.2,-10.1 v -7.7 l 3.8,-0.9 c 3.5,-0.8 3.7,-1.1 4.2,-5.5 0.3,-2.6 0.8,-4.9 1,-5.1 0.3,-0.2 1.7,-1.1 3.2,-2 1.7,-1.1 3.2,-3.2 3.9,-5.9 1.8,-6.3 2.5,-6.8 8.8,-6.8 3.1,0 6.2,-0.5 6.9,-1.2 0.8,-0.8 1.2,-4.5 1.2,-10 v -8.8 l 3.8,-2.4 c 2.7,-1.7 4.2,-3.6 5.2,-6.5 0.7,-2.2 1.9,-4.1 2.5,-4.1 0.7,0 2,-0.9 3.1,-2.1 1.6,-1.7 1.9,-3.4 1.7,-9.4 l -0.3,-7.4 3.9,-3.3 c 2.1,-1.8 4.6,-5 5.4,-7 1.2,-2.8 2.2,-3.8 3.9,-3.8 1.3,0 4.3,-0.6 6.8,-1.4 3.6,-1.1 4.6,-1.8 5.1,-4.2 1.2,-5.5 2.7,-8 6.3,-10.8 3.5,-2.7 3.6,-2.8 3.6,-9.9 0,-6.6 0.2,-7.3 3.1,-10.3 2.1,-2.2 3.4,-4.8 4,-8 1,-5.1 2.1,-6.4 5.7,-6.4 2.1,0 2.2,-0.4 2.2,-7.3 0,-4.3 0.5,-8 1.3,-9 0.7,-1 4,-2.3 7.6,-3 6.6,-1.4 9,-3.5 9.1,-8.3 0,-2.4 2.9,-5.4 5.2,-5.4 2,0 2.4,-1.2 3.3,-8.4 0.4,-3.1 1.1,-5.9 1.6,-6.2 0.5,-0.3 0.9,-1.4 0.9,-2.4 0,-1 1,-2.6 2.3,-3.4 1.4,-1 2.6,-3.4 3.3,-6.4 0.7,-3.3 1.7,-5 3.4,-5.9 1.3,-0.6 2.9,-2.5 3.6,-4.2 0.7,-1.7 2.5,-4.7 4,-6.6 2.3,-3 3.2,-3.5 6.8,-3.5 2.3,0 4.7,-0.5 5.4,-1.2 0.7,-0.7 1.2,-4 1.2,-7.6 0,-6.1 0.2,-6.5 3.9,-10.2 2.4,-2.4 4.1,-5.2 4.5,-7.4 0.5,-2.4 1.8,-4.4 4.1,-6.2 3.4,-2.6 3.5,-2.8 3.5,-10 0,-6.9 0.2,-7.5 2.7,-9.1 1.5,-1 5.2,-2 8.3,-2.3 l 5.5,-0.5 0.7,-4 c 1.8,-9.9 2,-10.4 4.7,-11.3 1.6,-0.6 3.3,-2.2 4,-4 0.8,-1.8 2.4,-3.5 3.9,-4 2.5,-0.8 2.6,-1.2 2.7,-7.5 V 994 h -10.9 c -10.1,0 -11,0.2 -13.8,2.5 -1.6,1.4 -4.2,2.8 -5.6,3.1 -1.5,0.3 -3.7,1 -5,1.5 -1.3,0.5 -8.6,0.9 -16.3,0.9 -7.8,0 -14.9,0.5 -16,1 -1.4,0.8 -1.9,2.2 -1.9,5.3 0,2.3 -0.6,4.9 -1.3,5.7 -2.2,2.8 -8.9,4.2 -22.7,4.7 -9.7,0.4 -14,0.9 -15.1,2 -0.9,0.8 -4.8,2.5 -8.5,3.8 -6.1,2.2 -8.6,2.5 -21.6,2.5 -14.2,0 -14.7,0.1 -16.5,2.4 -3.5,4.4 -8.1,6 -17.6,6.2 -5,0.1 -9.4,0.7 -10,1.3 -0.6,0.6 -3,1.1 -5.2,1.1 -3.3,0 -4.7,-0.6 -7.1,-3.1 -2.8,-3 -2.9,-3.3 -2.9,-13.7 v -10.6 l 3,-1.6 c 4.1,-2.1 4.5,-2.8 4.5,-8.8 0,-4.3 0.5,-5.8 2.5,-7.8 2.2,-2.2 3.3,-2.5 8.3,-2.3 l 5.7,0.3 0.3,-4.5 c 0.4,-7.8 0.9,-8.9 4.1,-8.9 3.3,0 4.1,-1.4 4.1,-7.5 0,-4.3 0,-4.4 3.8,-4.7 l 3.7,-0.3 0.3,-9.5 c 0.3,-10 1.4,-12.6 5.5,-13.2 2.2,-0.3 3.3,-1.9 4.2,-6 0.5,-2.6 0.9,-2.8 5.8,-2.8 9.7,0 9.7,0 9.7,-9.9 0,-8.8 1.9,-14.4 5.4,-15.7 0.8,-0.3 2.6,-3 4.1,-6 1.5,-3 3.8,-6.2 5.1,-7.1 2.1,-1.3 2.4,-2.3 2.4,-7.5 0,-6.7 2,-11.5 5.4,-12.8 1.7,-0.6 2.5,-1.9 3,-4.8 0.8,-5.4 5.3,-9.2 10.6,-9.2 4.1,0 7,-2.6 7,-6.2 0,-1 1.8,-2.9 4,-4.3 l 4,-2.5 v -6.6 c 0,-7.3 0.9,-9.9 4.8,-13.1 1.5,-1.3 3.1,-4 3.7,-6.5 0.8,-3.2 1.6,-4.4 3.4,-4.8 3,-0.7 5.1,-6.9 5.1,-15.2 0,-7.1 1.9,-8.8 9.7,-8.8 h 5.2 l 1.1,-4 c 0.6,-2.2 2.2,-5.1 3.6,-6.5 3.4,-3.4 5.4,-8.5 5.4,-14 0,-3.7 0.6,-5.2 3.4,-8.2 1.8,-2.1 3.7,-4.8 4,-6.1 0.8,-2.3 5.3,-5.2 8.3,-5.2 1,0 3.3,-0.9 5.1,-2 2.3,-1.4 3.2,-2.7 3.2,-4.7 0,-3.1 2.4,-6.5 5.6,-8.2 2.2,-1 3,-3.6 4.1,-12 0.4,-3.4 1.1,-4.7 3.3,-5.9 1.9,-1.1 3.3,-3.2 4.5,-7.1 2.2,-6.7 3.2,-8.1 5.6,-8.1 1.6,0 1.8,-0.6 1.2,-6.3 -0.4,-5 -0.2,-6.5 1.1,-7.6 0.9,-0.7 1.6,-2.4 1.6,-3.7 0,-3.2 3.6,-5.4 9.1,-5.4 4.2,0 4.8,-0.3 5.7,-2.7 0.6,-1.6 1.2,-3.7 1.4,-4.7 0.3,-1.9 1.7,-3 5.1,-4 1.2,-0.4 1.7,-1.6 1.7,-4 0,-1.9 0.5,-3.8 1,-4.1 0.6,-0.3 1,-2.1 1,-4 0,-1.9 0.5,-3.7 1,-4 0.6,-0.3 1,-1.4 1,-2.4 0,-1 0.9,-2.6 1.9,-3.5 1.1,-1 2.3,-3.1 2.6,-4.8 0.4,-1.8 2,-3.7 4,-5.1 2.6,-1.7 3.7,-3.5 5.1,-8.1 2.3,-7.5 3.5,-8.6 9.3,-8.6 5.9,0 7.1,-1.2 7.1,-7.1 0,-6.1 1.6,-10.4 4.5,-12.3 1.3,-0.9 2.9,-3.4 3.6,-5.5 0.6,-2.2 2.9,-5.7 5,-7.7 2.2,-2.2 3.9,-4.8 3.9,-6 0,-1.6 1.8,-3.6 5.5,-6.6 3,-2.3 5.5,-4.8 5.5,-5.5 0,-0.7 1.1,-2 2.4,-2.8 1.6,-1.1 2.5,-2.8 2.9,-5.6 0.6,-4.2 3,-7.9 5.3,-7.9 1.4,0 3.4,-3 3.4,-4.9 0,-0.7 -3.9,-1.1 -10.9,-1.1 -10.9,0 -11,0 -13,2.9 -2.6,3.6 -5.4,4.3 -22,4.8 -13,0.4 -13.6,0.5 -17.5,3.4 -2.2,1.6 -4.8,2.9 -5.7,2.9 -1,0 -2.1,0.5 -2.4,1 -0.3,0.6 -1.5,1 -2.5,1 -1.1,0 -2.4,0.9 -3,2 -1.5,2.8 -8,2.8 -10.5,0 -1.4,-1.6 -3.1,-2 -8.1,-2 -6.9,0 -11.1,1.4 -11.9,4 -0.7,2.2 -4.7,4 -9,4 -2.8,0 -3.5,0.4 -3.5,1.9 0,3.8 -1.1,5.1 -4.4,5.1 -5,-0.1 -6.8,-2.1 -6.4,-7.2 0.3,-4.1 0.5,-4.3 3.6,-4.6 2.7,-0.3 3.2,-0.7 2.6,-2 -0.4,-0.9 -1,-6 -1.2,-11.3 -0.3,-7.9 -0.1,-10.2 1.3,-12.3 1,-1.4 2.3,-2.6 3,-2.6 2.7,0 5.5,-5.6 5.5,-10.9 0,-5.6 2.3,-11.3 5.9,-14.5 2.6,-2.4 2.6,-3.3 0,-4.1 -1.7,-0.6 -2,-1.4 -1.7,-5.3 l 0.3,-4.7 h 5.3 5.2 v -6.1 c 0,-3.3 0.5,-6.5 1.2,-7.2 0.7,-0.7 4,-1.2 7.8,-1.2 h 6.7 l 1.1,-3.9 c 1.7,-5.5 1.5,-6.1 -1.9,-6.1 -2.9,0 -3,-0.1 -2.7,-4.3 l 0.3,-4.2 h 5 c 4.4,0 5,0.3 5.6,2.5 0.6,2.3 0.7,2.4 1.3,0.5 2.4,-6.8 3.6,-8.5 6,-8.5 2.3,0 2.4,-0.3 2.8,-9.2 0.5,-10.2 1.6,-12.9 5.9,-14.5 2.1,-0.8 2.9,-1.9 3.5,-4.9 0.4,-2.3 1.9,-5.3 3.7,-7.1 2.7,-2.8 3.8,-3.3 7.9,-3.3 h 4.8 v -7.6 c 0,-7.5 0,-7.6 4,-11.6 2.2,-2.3 4,-4.6 4,-5.3 0,-0.6 1.4,-2.4 3.1,-4.1 4.1,-3.8 5.9,-8.5 5.9,-14.9 0,-6.6 1.7,-8.3 8.9,-8.7 7.3,-0.4 8.3,-2.8 1.2,-2.8 H 989 v -3.8 c 0,-2.1 0.5,-4.3 1.2,-5 1.4,-1.4 7,-1.6 8.3,-0.3 0.6,0.6 2.4,0.5 4.7,-0.2 3.7,-1.2 5.8,-4.3 5.8,-8.7 0,-1 1.8,-2.9 4,-4.4 l 4,-2.6 v -8 -7.9 l 4,-3.2 c 2.6,-2.1 4,-4 4,-5.6 0,-4.1 3.3,-6.3 9.5,-6.3 3.6,0 5.7,-0.4 5.9,-1.2 0.2,-0.7 0.8,-2.9 1.4,-4.8 0.5,-1.9 1.3,-6.1 1.7,-9.4 0.5,-4.6 1.3,-6.4 3.5,-8.5 1.5,-1.4 3,-3.8 3.4,-5.2 0.3,-1.5 2.2,-3.8 4.1,-5.3 1.9,-1.5 3.5,-3.5 3.5,-4.5 0,-2.9 3,-8 5.6,-9.8 2.1,-1.3 2.4,-2.3 2.4,-7.9 0,-6 0.2,-6.5 3.6,-10 3.4,-3.4 4,-3.6 8.5,-3.2 4.3,0.4 4.9,0.3 4.9,-1.4 0,-2.7 3.8,-10 6.3,-11.9 1.6,-1.3 2.2,-3.3 2.8,-8.5 0.6,-5.9 1.1,-7.1 3.8,-9.3 2.1,-1.8 3.4,-4.2 4.3,-7.6 1.3,-5.4 3.3,-8.5 5.5,-8.5 0.7,0 1.9,-1.2 2.5,-2.8 1.7,-4 3.9,-6.2 6,-6.2 1.1,0 2.6,-1.3 3.6,-3.2 0.9,-1.7 2.9,-4.5 4.5,-6.1 1.5,-1.7 2.7,-3.8 2.7,-4.9 0,-3.3 2.8,-8.6 4.8,-9.2 1.2,-0.4 2.9,-2.8 4.2,-6 1.2,-2.9 3.5,-6.6 5.1,-8.2 2.6,-2.5 2.9,-3.4 2.9,-9.4 0,-8.5 1.4,-10 9.2,-10 6,0 7.2,-0.8 8.1,-5.5 1.4,-7.5 2.3,-9.6 4.7,-10.8 2.2,-1.1 2.6,-2.1 3,-7.3 0.5,-6.6 1.9,-9.1 5.3,-9.6 1.7,-0.2 2.3,-1.2 2.8,-4.3 0.6,-4.7 2.8,-9.2 5.8,-11.9 1.2,-1.1 2.1,-2.6 2.1,-3.5 0,-0.9 1,-3.2 2.2,-5.1 1.2,-1.9 2.7,-5.7 3.3,-8.5 l 1,-5 4.8,-0.3 c 4.7,-0.3 4.9,-0.5 6.8,-4.7 1.1,-2.5 2.9,-5 4,-5.6 1.2,-0.6 2.9,-3 4,-5.3 1,-2.3 2.9,-4.7 4.2,-5.3 2.8,-1.3 3.6,-4.2 4.4,-14.6 0.4,-6.4 0.6,-6.8 3.6,-8.3 1.8,-0.9 4.6,-3.2 6.3,-5 3.1,-3.3 3.4,-3.4 10.9,-3.4 7.7,0 7.7,0 11.6,4 2.2,2.2 3.9,4.5 3.9,5.2 0,0.6 0.6,1.9 1.3,2.7 0.8,0.9 2.1,3.9 3,6.6 3.7,11.3 4.5,13 7.1,14.3 1.4,0.7 3.6,3.1 4.9,5.2 1.8,3.2 2.8,4 5.2,4 7,0.1 10.3,4.7 11.4,15.5 0.5,6.3 0.9,7.1 3.3,8.3 1.9,0.9 3.1,2.5 3.9,5.5 1.7,6.4 2.8,8.2 6,10.1 1.6,0.9 2.9,2.5 2.9,3.6 0,1 1.3,2.9 2.9,4.2 4,3.4 5.1,5.9 5.1,11.5 0,5.5 2.1,9.3 5.2,9.3 2.6,0 8.3,3.5 10.3,6.3 0.8,1.2 1.5,3.1 1.5,4.4 0,1.2 1.3,3.2 3,4.5 2.5,2 3.2,3.5 4.4,10.4 1.6,9.5 2.9,12.4 5.6,12.4 1.3,0 2.2,0.9 2.6,2.8 1,4.8 1.2,5.1 5.4,7.2 l 4,2 v 10.5 10.5 h 5.3 c 6.1,0 10,1.7 10.6,4.5 0.2,1.1 2.4,4.9 4.9,8.4 2.5,3.6 4.8,8.1 5.2,10 0.4,2.9 1,3.7 3.1,3.9 3.4,0.4 4.9,3.8 4.9,11.2 0,6.5 1.2,8 6.4,8 3.2,0 9.5,6.3 10.3,10.3 0.3,1.5 1.4,3.2 2.5,3.8 3.1,1.7 5.8,7 5.8,11.6 0,3.4 0.7,5 4,8.8 3.2,3.7 4,5.4 4,8.5 0,3.4 0.4,4.2 3.1,5.5 2.1,1.1 3.7,3.2 5.1,6.5 1.6,3.8 2.6,4.9 4.9,5.4 2.7,0.5 2.9,0.8 2.9,5.4 0,4.5 0.2,4.8 3.3,5.7 2.1,0.7 3.7,2.1 4.8,4.2 2.3,4.7 3.9,6.3 6,6.3 1.2,0 2.1,0.9 2.4,2.8 2.1,9.6 2.7,10.9 6.1,12.5 3.3,1.6 3.4,1.8 3.4,8.1 0,7.6 0.6,9.6 3,9.6 2.3,0 4.8,3.8 5.2,8.1 0.3,3.3 0.4,3.4 4.5,3.1 5.9,-0.5 9.4,2.4 14.4,12.2 2.2,4.5 5.2,9.6 6.6,11.4 3.7,4.9 7.2,13.3 7.9,18.8 0.4,2.7 1.2,5.4 1.9,5.9 2.1,1.8 4.3,7.8 5,13.9 0.9,8.2 1.2,8.6 5.4,8.6 2.1,0 4.4,0.6 5.3,1.3 2.9,2.3 14.6,22.2 15.3,26.1 0.6,2.7 1.6,4.3 3.8,5.6 1.7,1.1 3.5,3.3 4.1,5.2 0.6,1.9 2.2,3.8 3.6,4.5 2.4,1.1 18.2,20.6 22.5,27.7 3.1,5.1 10.5,14.6 11.4,14.6 0.4,0 3.7,3.9 7.3,8.8 3.7,4.8 10.1,13.2 14.3,18.7 7.1,9.3 7.6,10.2 7.3,14.4 -0.2,3 -0.9,4.7 -2,5.2 -1,0.5 -2.6,1.3 -3.5,1.7 -1,0.5 -2.6,2.5 -3.6,4.5 -1.6,3.2 -2.4,3.7 -5.2,3.7 -1.9,0 -3.7,0.4 -4,1 -0.8,1.2 -11.2,1.3 -11.9,0.1 -0.3,-0.4 -1.9,-1.1 -3.4,-1.4 -1.6,-0.3 -4.4,-1.8 -6.2,-3.3 l -3.3,-2.8 -1.7,2.2 c -2.4,2.9 -8.9,3.1 -11.5,0.2 -1.4,-1.6 -3.1,-2 -8.1,-2 -6.1,0 -6.4,-0.1 -9.5,-4 l -3.2,-3.9 -14.6,-0.4 c -17.5,-0.5 -22.9,-1.5 -27.1,-5 -2.9,-2.5 -3.8,-2.7 -13,-2.7 h -9.8 l 0.7,2.7 c 0.6,2.4 1.4,2.9 5.3,3.4 2.5,0.4 5.4,1.2 6.5,1.7 2.7,1.5 11.1,21.1 13.3,30.9 1,4.2 1.7,5.3 4.1,6.3 3.2,1.4 4.9,3.7 4.9,6.7 0,1.2 1.3,2.6 3.5,3.6 l 3.5,1.7 v 7.4 c 0,4.1 0.5,8.6 1.1,9.9 1.3,2.9 4.8,4.7 9,4.7 3.6,0 7.6,3.9 8.1,7.8 0.2,2.1 0.9,2.8 3.1,3 3.1,0.4 4.2,2 5.2,8.2 0.4,2.5 2,7.2 3.6,10.6 1.6,3.4 2.9,6.9 2.9,7.8 0,3.7 2,5.5 6.8,6.2 9,1.3 10.4,3.2 11.2,15.4 0.5,8 0.6,8.4 3,9 1.6,0.4 3.3,2 4.6,4.5 1.1,2.2 2.8,4.1 3.7,4.3 1.7,0.4 4.7,5 4.7,7.4 0,4 2.2,8.6 4.3,9.2 3,0.7 4.7,4.5 4.7,10.4 0,6.2 0.9,7.3 7.1,8.9 6.6,1.7 8.9,3.7 8.9,7.8 0,3.5 1.5,5.5 4.1,5.5 3,0 4.9,2.9 4.9,7.5 0,5.5 3.9,14.1 8.5,18.5 1.9,1.9 3.5,3.9 3.5,4.6 0,5.3 15.9,31.9 30.2,50.5 3.4,4.5 6.4,9.6 7.3,12.6 1.7,5.6 2.7,6.7 6.7,7.7 3.6,0.8 9,6.8 10.4,11.4 0.8,2.9 1.6,3.8 3.7,4 1.7,0.2 4.2,2.1 7.2,5.6 l 4.5,5.3 v 8.4 c 0,9 1.9,14.1 5.7,15.3 1,0.3 2.6,2.4 3.5,4.6 1.3,3.2 2.2,4 4.2,4 1.5,0 3.6,0.5 4.9,1.2 1.2,0.6 2.9,1.4 3.7,1.8 2.5,1.1 5,7.2 5,12.2 0,6.1 0.7,7.6 4.1,9.4 2.1,1 2.9,2.2 2.9,4 0,1.7 1.2,3.8 3.4,5.8 4.7,4.4 5.6,6.6 5.6,13.9 0,6.2 0.1,6.6 3.4,9.1 1.9,1.4 3.8,3.6 4.2,4.8 1.3,4.3 3.4,5.8 8.5,5.8 4.6,0 4.9,0.2 6.9,4 1.1,2.1 2,4.5 2,5.1 0,0.7 1.4,2.4 3,3.8 2.7,2.3 3.2,3.7 4.4,10.9 1.2,7.7 1.6,8.6 5.7,12.8 2.4,2.5 5.6,5.2 7.2,6 2.3,1.2 2.7,2.1 2.7,5.8 0,3.5 -0.5,4.7 -2.4,5.9 -3.4,2.3 -13.3,3.7 -25.3,3.7 -12.7,0 -19.7,-1.5 -24.3,-5.1 -3.2,-2.5 -4.4,-2.8 -13,-3.2 -14.7,-0.7 -27.5,-2.9 -30.7,-5.3 -2.4,-1.8 -4.9,-2.2 -17.6,-2.8 -10.5,-0.6 -16.2,-1.3 -19.9,-2.7 -2.9,-1 -5.4,-1.9 -5.5,-1.9 -0.1,0 -0.3,-2.6 -0.5,-5.7 l -0.3,-5.8 -16,-0.5 c -16.8,-0.5 -21,-1.5 -25.1,-6.1 -1.5,-1.7 -3.1,-1.9 -14.2,-1.9 -10.9,0 -12.3,0.2 -11.8,1.6 0.3,0.9 0.6,2.7 0.6,4 0,1.4 1.5,4 3.5,6.1 2.3,2.4 3.6,5 4,7.7 1,6.3 4.7,10 10.9,10.6 4.9,0.5 5.1,0.6 5.6,4 0.4,2.7 1.4,4.1 4.3,5.9 3.5,2.3 3.7,2.7 3.8,8 0,3.1 0.4,7.6 0.7,10.1 0.7,4.2 0.9,4.5 4.2,5 3.2,0.5 3.5,0.8 3.8,4.3 0.2,2.7 1,4.2 2.8,5.4 3.7,2.4 5.4,6.5 5.3,12.6 -0.2,5.2 1.2,9.4 3.5,10.9 0.6,0.4 3.9,0.8 7.4,0.8 6.1,0 6.2,0 6.2,2.8 0,4.5 1.1,7.1 3.2,7.8 3,0.9 5.8,8 5.8,15 0,6.4 0.7,7.4 5,7.4 2.1,0 4,2.8 4,5.8 0,2.7 4.2,5.2 8.8,5.2 5,0 7,2.2 7.4,8.4 0.3,4.8 1,5.7 5.1,7 1.4,0.4 1.7,1.7 1.7,7.1 0,6.2 0.2,6.9 3.2,9.8 3.2,3.2 6.8,9.6 6.8,12.3 0,0.7 1.3,2 2.9,2.8 3.6,1.9 5.1,6.1 5.1,14.2 v 6.4 h 5.5 c 5.2,0 5.6,0.2 8,3.7 1.4,2.1 2.5,4.8 2.5,6 0,1.5 1,2.8 3,3.8 1.6,0.8 3.8,3.2 4.9,5.3 1.1,2 2.9,4.3 4,5 1.8,1 2.1,2.2 2.1,7.2 0,7 1.1,9.3 8.2,16.3 4.1,4.2 4.8,5.5 4.8,8.8 v 3.9 h 4.7 c 3.7,0 5.3,0.6 7.5,2.7 2.6,2.4 2.8,3.3 2.8,9.8 0,7.2 1,9.5 4,9.5 1.7,0 4,5.1 4,9.1 0,3.1 1.9,5.6 4.5,6.1 3.4,0.5 10,15.4 12,27 l 0.6,3.7 5,-0.6 c 4.5,-0.5 5.3,-0.3 7.9,2.2 1.7,1.6 3,3.8 3,5 0,1.1 1.8,3.9 4,6 3.9,3.8 4,4.1 4,10.6 0,3.7 0.5,7.1 1,7.4 0.6,0.3 1,1.4 1,2.5 0,1.1 1.1,2.2 3,2.9 2.1,0.7 3,1.7 3,3.3 0.1,1.3 0.7,3.4 1.4,4.7 1.2,2.2 2,2.5 6.2,2.3 7.3,-0.3 8.6,1.1 9.2,10.5 0.5,8.9 1.3,11 4.7,12.3 1.4,0.5 3.1,2.4 3.8,4.2 0.8,1.8 3.1,4.9 5,7 2,2 3.9,4.9 4.3,6.5 0.4,1.5 2.3,4.5 4.2,6.5 3.3,3.5 3.6,4.4 4.2,11.5 l 0.5,7.8 5,0.3 c 6.2,0.4 8.5,2.3 8.5,7.2 0,4.6 -2.5,7 -7.3,7 -2,0 -5.5,0.7 -7.7,1.6 -3.2,1.3 -6.4,1.6 -14.8,1.2 -11,-0.5 -16.3,-2.1 -17.5,-5.3 -0.5,-1.2 -2.9,-1.5 -14,-1.5 -7.3,0 -13.7,-0.4 -14.3,-1 -0.5,-0.5 -7,-1.1 -14.4,-1.2 l -13.5,-0.3 -1.7,-3.5 c -1.8,-3.9 -3.3,-7.6 -4.1,-10.1 -0.4,-1.4 -3.2,-1.7 -17.8,-2.3 -17.7,-0.8 -19.2,-1.1 -24.5,-5.8 -1.8,-1.6 -4.6,-2 -18.8,-2.5 -15.5,-0.6 -17,-0.8 -19.9,-3 -6.6,-4.8 -8.9,-5.3 -23.2,-5.3 -14.5,0 -16.6,-0.5 -20.2,-4.8 l -2.3,-2.7 -19.7,-0.5 c -25.7,-0.7 -29.3,-2.1 -29.3,-11.2 v -4.8 h -11.4 c -6.6,0 -11.7,-0.4 -12.1,-1 -0.3,-0.5 -3,-1 -5.8,-1 -2.9,-0.1 -7.2,-0.6 -9.7,-1.1 -2.5,-0.6 -6.3,-1.3 -8.5,-1.6 -2.2,-0.3 -5.1,-1.4 -6.4,-2.4 -2.1,-1.7 -4.2,-1.9 -16.4,-1.9 -12.9,0 -20.8,-1.1 -23.1,-3.2 -0.6,-0.4 -1.7,-0.8 -2.6,-0.8 -0.9,0 -2.5,-0.9 -3.5,-2 -1.6,-1.8 -3.1,-2 -15.9,-2 -15.4,0 -19.9,-1 -24.4,-5.3 -2.6,-2.5 -3,-2.6 -18.7,-3 -17.2,-0.4 -27,-2.1 -30.6,-5.3 -1.7,-1.6 -2,-2.7 -1.7,-6.6 l 0.5,-4.7 -15.6,-0.4 c -18,-0.4 -20.5,-0.9 -24.6,-4.8 -2.9,-2.7 -3.4,-2.8 -16.5,-3.3 -18.1,-0.6 -36,-3.2 -40,-5.8 -3.8,-2.4 -11.2,-3.6 -26.3,-4.2 -7.6,-0.3 -14.7,-1 -15.7,-1.6 -2.1,-1.1 -5,-6.4 -5,-9 0,-0.9 -0.8,-2.4 -1.8,-3.3 -1.6,-1.4 -4.4,-1.7 -18.9,-1.7 h -17 l 0.5,5.3 c 0.4,4.9 0.2,5.4 -2.2,6.5 -1.5,0.7 -3.3,1.2 -4,1.2 -0.8,0 -1.9,0.7 -2.6,1.5 -1,1.2 -3.7,1.5 -11.9,1.5 -13.6,0 -25.4,2.1 -29.5,5.1 -3.4,2.6 -9.6,3.3 -36.6,4.5 -12.5,0.6 -13.6,0.8 -15.6,3 -1.2,1.3 -3.5,2.6 -5.1,2.9 -1.5,0.4 -3.8,1.1 -5.1,1.6 -1.3,0.5 -8.5,0.9 -16.1,0.9 h -13.8 l -2.2,6 c -1.3,3.6 -3.1,6.5 -4.4,7.2 -3.1,1.7 -12.3,2.9 -26.6,3.5 -11.7,0.4 -12.6,0.6 -16.7,3.4 -2.3,1.6 -5.4,2.9 -6.8,2.9 -1.4,0 -2.8,0.5 -3.1,1 -0.4,0.6 -6.9,1 -16.3,1 h -15.6 l -2.1,2.7 c -3.1,3.8 -9.8,5.2 -24.8,5.3 -13.1,0 -15.3,0.5 -19.5,4.4 -2.1,1.9 -4,2.2 -17.5,2.8 -8.4,0.4 -17.3,1 -19.9,1.3 l -4.8,0.7 v 4.7 c 0,8.7 -3.2,9.7 -38.5,10.9 -18.1,0.7 -19.2,0.8 -21.5,3 -4.4,4.2 -7.9,4.9 -24.3,5.4 -13.9,0.3 -15.9,0.6 -17.9,2.4 -5.9,5.3 -7.3,5.6 -24.5,6.2 -15.4,0.5 -16.7,0.7 -19.3,2.8 -4.9,4.2 -7.9,4.8 -25.5,5.4 l -17,0.5 -0.3,5.2 c -0.2,3.2 -0.9,5.6 -1.9,6.5 -0.9,0.7 -5.2,1.6 -9.7,1.9 -4.5,0.4 -9.9,1.2 -12.1,1.9 -2.2,0.7 -9.2,1.6 -15.5,1.9 -6.3,0.3 -12.4,1.1 -13.5,1.8 -1.9,1.2 -6.6,2.4 -16.5,4.3 -5.5,1.1 -18.6,1.1 -22.1,0.1 z"
       id="path6" />
    <path
       d="m 606,1376 c 0,-3.9 0.1,-4 3.5,-4 3.4,0 3.5,0.1 3.5,4 0,3.9 -0.1,4 -3.5,4 -3.4,0 -3.5,-0.1 -3.5,-4 z"
       id="path7" />
    <path
       d="m 1330.7,1373.4 c -0.9,-0.9 -0.9,-7.6 -0.1,-9.8 0.4,-1.1 1.8,-1.6 4.3,-1.6 5.4,0 6.3,1 5.9,6.6 l -0.3,4.9 -4.5,0.3 c -2.5,0.2 -4.9,0 -5.3,-0.4 z"
       id="path8" />
    <path
       d="m 363.7,1179.3 c -0.4,-0.3 -0.7,-2.1 -0.7,-4 0,-3.3 0.1,-3.3 4.5,-3.3 h 4.5 v 4 c 0,4 0,4 -3.8,4 -2.1,0 -4.2,-0.3 -4.5,-0.7 z"
       id="path9" />
    <path
       d="m 764,1059 v -4 h 4 4 v 4 4 h -4 -4 z"
       id="path10" />
    <path
       d="m 730.7,1054.4 c -0.4,-0.4 -0.7,-4.1 -0.7,-8.1 v -7.4 l 4.3,0.3 4.2,0.3 v 7.5 7.5 l -3.5,0.3 c -2,0.2 -3.9,0 -4.3,-0.4 z"
       id="path11" />
    <path
       d="m 748,916.9 v -4 l 3.8,0.3 c 3.5,0.3 3.7,0.5 4,4.1 l 0.3,3.7 h -4 -4.1 z"
       id="path12" />
    <path
       d="m 480.3,830.3 c -0.7,-0.2 -1.3,-1.7 -1.3,-3.3 0,-5.2 0.8,-6 6.1,-6 h 4.9 v 3.8 c 0,2.1 -0.5,4.3 -1.2,5 -1.2,1.2 -6.2,1.5 -8.5,0.5 z"
       id="path13" />
    <path
       d="m 1564.7,688.4 c -0.4,-0.4 -0.7,-2.7 -0.7,-5.1 V 679 h 5.1 5 l -0.3,4.8 -0.3,4.7 -4,0.3 c -2.3,0.2 -4.4,0 -4.8,-0.4 z"
       id="path14" />
    <path
       d="m 480.4,654.7 c -0.3,-0.8 -0.4,-3.2 -0.2,-5.3 0.3,-3.5 0.6,-3.9 3.2,-4.2 1.6,-0.2 4,0.2 5.3,0.9 2,1.1 2.3,1.9 2.1,5.3 l -0.3,4.1 -4.8,0.3 c -3.4,0.2 -4.9,-0.1 -5.3,-1.1 z"
       id="path15" />
    <path
       d="m 913.2,575.3 0.3,-4.8 h 5 5 v 4.5 4.5 l -5.3,0.3 -5.3,0.3 z"
       id="path16" />
    <path
       d="m 1531.2,572.8 c -1.7,-1.7 -1.5,-8.3 0.2,-9.7 0.8,-0.7 3,-1.1 4.8,-0.9 3.3,0.3 3.3,0.3 3.3,5.8 v 5.5 l -3.5,0.3 c -1.9,0.2 -4.1,-0.3 -4.8,-1 z"
       id="path17" />
    <path
       d="M 990,550.5 V 546 h 4.5 c 4.3,0 4.5,0.1 4.5,2.9 0,5 -0.9,6.1 -5.1,6.1 H 990 Z"
       id="path18" />
    <path
       d="m 622.2,341 c -1.8,-3 -1.6,-11.6 0.4,-12.4 3,-1.1 7.2,-0.6 7.8,1 0.8,2 0.8,6.3 0,10.3 -0.6,2.7 -1.1,3.1 -3.8,3.1 -2,0 -3.6,-0.7 -4.4,-2 z"
       id="path19" />
  </g>
</svg>
